<?xml version="1.0" encoding="UTF-8" standalone="no"?><!DOCTYPE svg PUBLIC "-//W3C//DTD SVG 1.1//EN" "http://www.w3.org/Graphics/SVG/1.1/DTD/svg11.dtd"><svg width="100%" height="100%" viewBox="0 0 2134 1361" version="1.1" xmlns="http://www.w3.org/2000/svg" xmlns:xlink="http://www.w3.org/1999/xlink" xml:space="preserve" xmlns:serif="http://www.serif.com/" style="fill-rule:evenodd;clip-rule:evenodd;stroke-linejoin:round;stroke-miterlimit:2;"><rect id="Artboard1" x="0" y="0" width="2133.33" height="1360.94" style="fill:none;"/><g><path d="M1275.39,163.699l-0,178.989l-69.576,-0l-0,-143.191l-278.304,-0l-0,143.191l-69.576,-0l-0,-178.989c-0,-19.688 15.654,-35.797 34.788,-35.797l347.88,-0c19.133,-0 34.788,16.109 34.788,35.797Z" style="fill:#ffcc75;fill-rule:nonzero;"/><path d="M565.557,643.269l0,379.575l185.536,190.921l637.78,0l185.536,-190.921l0,-379.575l-1008.85,0Z" style="fill:#185f8d;fill-rule:nonzero;"/><path d="M1524.71,294.957l-916.084,0c-38.267,0 -69.576,32.218 -69.576,71.596l-0,269.199c8.813,3.415 17.649,6.753 26.508,9.978c140.683,51.498 284.056,80.592 431.534,87.296l139.152,-0.334c170.711,-8.53 317.862,-44.7 438.166,-89.423c6.633,-2.437 13.266,-4.964 19.876,-7.517l-0,-269.199c-0,-39.378 -31.31,-71.596 -69.576,-71.596Z" style="fill:#6da8d6;fill-rule:nonzero;"/><path d="M1136.24,782.26l-0,71.595l-139.152,0l-0,-71.595l66.259,-47.731l72.893,47.731Z" style="fill:#ff6e1d;fill-rule:nonzero;"/><rect x="997.091" y="639.069" width="139.152" height="143.191" style="fill:#ffcc75;"/><ellipse cx="714.148" cy="403.489" rx="17.394" ry="17.899" style="fill:#185f8d;"/><ellipse cx="644.57" cy="475.084" rx="17.394" ry="17.899" style="fill:#185f8d;"/><path d="M751.093,1213.77l-115.96,0c-38.267,0 -69.576,-32.218 -69.576,-71.595l0,-119.326c102.462,0 185.536,85.485 185.536,190.921Z" style="fill:#ffcc75;fill-rule:nonzero;"/><path d="M1574.41,1022.84l0,119.326c0,39.377 -31.309,71.595 -69.576,71.595l-115.96,0c0,-105.436 83.074,-190.921 185.536,-190.921Z" style="fill:#ffcc75;fill-rule:nonzero;"/></g></svg>