<?xml version="1.0" encoding="UTF-8" standalone="no"?><!DOCTYPE svg PUBLIC "-//W3C//DTD SVG 1.1//EN" "http://www.w3.org/Graphics/SVG/1.1/DTD/svg11.dtd"><svg width="100%" height="100%" viewBox="0 0 2138 1296" version="1.1" xmlns="http://www.w3.org/2000/svg" xmlns:xlink="http://www.w3.org/1999/xlink" xml:space="preserve" xmlns:serif="http://www.serif.com/" style="fill-rule:evenodd;clip-rule:evenodd;stroke-linejoin:round;stroke-miterlimit:2;"><rect id="Artboard1" x="0" y="0" width="2137.34" height="1295.5" style="fill:none;"/><g id="Layer-1" serif:id="Layer 1"><path d="M456.711,315.337l0,686.434l1223.92,-0l0,-686.434l-1223.92,0Z" style="fill:#e6e6e6;fill-rule:nonzero;"/><path d="M1716.77,261.822l0,793.462l-75.708,-75.716l-0,-642.029l75.708,-75.717Z" style="fill:#f7b239;fill-rule:nonzero;"/><path d="M1716.77,261.822l-75.708,75.717l-1144.77,-0l-75.712,-75.717l1296.19,-0Z" style="fill:#e09b2d;fill-rule:nonzero;"/><path d="M1641.06,979.569l-1144.77,-0l-75.713,75.716l1296.19,0l-75.709,-75.716Z" style="fill:#e09b2d;fill-rule:nonzero;"/><path d="M711.411,1051.97l-11.6,-8.421l-11.562,8.421l-0.038,-0l-55.025,40.033l0,-266.771c2.45,0.663 4.788,1.517 6.905,2.609c13.05,6.666 34.787,39.841 37.095,25.683c23.455,-143.725 28.93,-10.729 43.221,-13c11.963,-1.867 26.617,3.492 38.759,1.187l7.3,0l-0,250.267l-55.055,-40.008Z" style="fill:#f95428;fill-rule:nonzero;"/><path d="M496.293,337.538l-0,642.029l-75.713,75.717l0,-793.463l75.713,75.717Z" style="fill:#f7b239;fill-rule:nonzero;"/><rect x="556.61" y="482.312" width="1019.4" height="45.425" style="fill:#666;"/><rect x="906.651" y="617.729" width="665.279" height="45.429" style="fill:#666;"/><rect x="906.651" y="696.299" width="662.587" height="45.425" style="fill:#666;"/><rect x="1347.82" y="803.916" width="224.104" height="45.425" style="fill:#666;"/><path d="M633.186,919.266c-12.02,-3.483 -26.95,-3.579 -35.67,-12.329c-10.546,-10.538 -8.509,-29.988 -14.934,-42.579c-6.671,-13.054 -23.471,-22.934 -25.712,-37.104c-2.238,-14.321 10.75,-28.909 13.025,-43.238c2.2,-14.146 -5.696,-32.075 0.966,-45.129c6.425,-12.596 25.409,-16.771 35.95,-27.288c10.538,-10.537 14.717,-29.558 27.317,-35.975c13.05,-6.629 30.95,1.267 45.121,-0.975c14.3,-2.241 28.892,-15.225 43.217,-12.987c14.175,2.237 24.045,19.046 37.095,25.712c12.6,6.425 32.067,4.363 42.58,14.9c10.545,10.53 8.512,30.013 14.937,42.6c6.663,13.059 23.471,22.934 25.713,37.109c2.237,14.291 -10.755,28.916 -13.021,43.216c-2.221,14.175 5.687,32.071 -0.975,45.121c-6.421,12.6 -25.409,16.775 -35.95,27.317c-10.534,10.537 -14.721,29.529 -27.284,35.954c-2.029,1.025 -4.179,1.725 -6.395,2.146c-12.142,2.304 -26.796,-3.058 -38.759,-1.179c-14.296,2.266 -28.891,15.258 -43.221,12.987c-14.166,-2.204 -24.045,-19.016 -37.095,-25.683c-2.117,-1.083 -4.455,-1.929 -6.905,-2.596" style="fill:#f7b239;fill-rule:nonzero;"/><path d="M744.299,760.143c24.562,24.567 24.562,64.388 -0,88.917c-24.563,24.562 -64.388,24.562 -88.946,-0c-24.558,-24.538 -24.558,-64.35 0,-88.917c24.558,-24.558 64.388,-24.558 88.946,0" style="fill:#f95428;fill-rule:nonzero;"/></g><g id="Layer-3" serif:id="Layer 3"><path d="M731.252,381.178l-0,2.763l-7.792,-0l0,20.341l-3.112,0l-0,-20.341l-7.784,-0l0,-2.763l18.688,0Z" style="fill:#231f20;fill-rule:nonzero;"/><path d="M733.949,387.406l2.663,-0l-0,2.983c0.225,-0.571 0.762,-1.275 1.629,-2.104c0.858,-0.821 1.85,-1.229 2.975,-1.229c0.054,-0 0.146,0.004 0.275,0.021c0.125,0.008 0.333,0.033 0.642,0.075l-0,3.016c-0.167,-0.041 -0.321,-0.066 -0.463,-0.079c-0.146,-0.012 -0.3,-0.021 -0.466,-0.021c-1.425,0 -2.525,0.463 -3.296,1.384c-0.763,0.92 -1.15,1.979 -1.15,3.166l-0,9.663l-2.809,-0l0,-16.875Z" style="fill:#231f20;fill-rule:nonzero;"/><path d="M747.64,401.714c0.604,0.475 1.308,0.709 2.137,0.709c1,-0 1.971,-0.229 2.917,-0.679c1.587,-0.759 2.379,-2.005 2.379,-3.746l0,-2.284c-0.346,0.23 -0.787,0.434 -1.333,0.588c-0.546,0.154 -1.075,0.267 -1.6,0.317l-1.696,0.2c-1.029,0.125 -1.813,0.333 -2.35,0.625c-0.908,0.487 -1.363,1.27 -1.363,2.35c0,0.812 0.3,1.458 0.909,1.92m6.008,-7.645c0.658,-0.08 1.092,-0.35 1.313,-0.813c0.145,-0.246 0.212,-0.608 0.212,-1.075c0,-0.954 -0.346,-1.646 -1.029,-2.071c-0.683,-0.433 -1.667,-0.646 -2.946,-0.646c-1.475,0 -2.521,0.392 -3.137,1.175c-0.35,0.434 -0.575,1.088 -0.671,1.938l-2.671,-0c0.058,-2.083 0.729,-3.538 2.021,-4.346c1.291,-0.821 2.787,-1.233 4.491,-1.233c1.98,-0 3.58,0.391 4.821,1.175c1.221,0.775 1.834,1.958 1.834,3.554l-0,9.671c-0,0.291 0.058,0.529 0.179,0.704c0.112,0.183 0.371,0.271 0.758,0.271c0.121,-0 0.267,-0.004 0.417,-0.021c0.158,-0.021 0.325,-0.038 0.504,-0.075l-0,2.067c-0.442,0.137 -0.775,0.212 -1,0.237c-0.229,0.033 -0.542,0.05 -0.938,0.05c-0.966,0 -1.675,-0.346 -2.108,-1.025c-0.233,-0.362 -0.392,-0.887 -0.487,-1.546c-0.575,0.754 -1.409,1.425 -2.492,1.988c-1.083,0.554 -2.271,0.841 -3.575,0.841c-1.567,0 -2.846,-0.483 -3.833,-1.433c-0.996,-0.954 -1.492,-2.142 -1.492,-3.571c-0,-1.571 0.487,-2.787 1.467,-3.65c0.975,-0.862 2.258,-1.391 3.841,-1.591l4.521,-0.575Z" style="fill:#231f20;fill-rule:nonzero;"/><path d="M762.488,387.406l2.658,-0l0,2.429c0.8,-0.992 1.646,-1.704 2.538,-2.129c0.887,-0.438 1.883,-0.65 2.975,-0.65c2.391,-0 4.008,0.833 4.85,2.5c0.458,0.908 0.691,2.216 0.691,3.916l0,10.809l-2.812,-0l-0,-10.613c-0,-1.021 -0.154,-1.854 -0.454,-2.483c-0.517,-1.046 -1.434,-1.571 -2.767,-1.571c-0.671,0 -1.233,0.067 -1.667,0.208c-0.779,0.234 -1.471,0.692 -2.058,1.38c-0.479,0.558 -0.783,1.129 -0.925,1.72c-0.146,0.596 -0.217,1.438 -0.217,2.538l0,8.821l-2.812,-0l-0,-16.875Z" style="fill:#231f20;fill-rule:nonzero;"/><path d="M782.108,398.958c0.083,0.925 0.329,1.629 0.721,2.125c0.721,0.896 1.971,1.341 3.754,1.341c1.063,0 2,-0.225 2.8,-0.675c0.808,-0.445 1.217,-1.141 1.217,-2.079c-0,-0.721 -0.325,-1.262 -0.971,-1.633c-0.413,-0.225 -1.229,-0.492 -2.45,-0.796l-2.271,-0.567c-1.458,-0.358 -2.529,-0.754 -3.212,-1.191c-1.234,-0.771 -1.846,-1.829 -1.846,-3.188c-0,-1.587 0.579,-2.879 1.741,-3.866c1.159,-0.984 2.717,-1.475 4.684,-1.475c2.562,-0 4.416,0.741 5.55,2.229c0.708,0.941 1.054,1.954 1.033,3.046l-2.658,-0c-0.054,-0.63 -0.284,-1.205 -0.692,-1.713c-0.658,-0.737 -1.804,-1.104 -3.437,-1.104c-1.092,-0 -1.909,0.2 -2.471,0.612c-0.559,0.405 -0.834,0.942 -0.834,1.605c0,0.725 0.363,1.308 1.105,1.745c0.416,0.267 1.041,0.488 1.87,0.688l1.888,0.458c2.046,0.492 3.425,0.967 4.125,1.434c1.104,0.72 1.654,1.858 1.654,3.408c0,1.5 -0.571,2.796 -1.717,3.887c-1.15,1.092 -2.895,1.638 -5.237,1.638c-2.529,-0 -4.317,-0.571 -5.367,-1.708c-1.054,-1.134 -1.621,-2.542 -1.687,-4.221l2.708,-0Z" style="fill:#231f20;fill-rule:nonzero;"/><path d="M806.905,400.75c0.871,-1.117 1.304,-2.779 1.304,-4.992c-0,-1.354 -0.188,-2.516 -0.575,-3.487c-0.729,-1.871 -2.063,-2.809 -3.996,-2.809c-1.942,0 -3.275,0.988 -3.992,2.959c-0.383,1.062 -0.575,2.4 -0.575,4.033c0,1.308 0.192,2.421 0.575,3.342c0.73,1.746 2.059,2.629 3.992,2.629c1.317,-0 2.4,-0.558 3.267,-1.675m-10.6,-13.242l2.766,0l0,2.196c0.559,-0.762 1.18,-1.35 1.85,-1.762c0.95,-0.63 2.071,-0.942 3.359,-0.942c1.904,-0 3.521,0.737 4.854,2.204c1.329,1.471 1.992,3.563 1.992,6.288c-0,3.683 -0.963,6.316 -2.884,7.891c-1.212,1 -2.633,1.504 -4.241,1.504c-1.275,0 -2.338,-0.279 -3.196,-0.829c-0.504,-0.316 -1.067,-0.854 -1.688,-1.621l0,8.575l-2.812,0l-0,-23.504Z" style="fill:#231f20;fill-rule:nonzero;"/><path d="M824.89,400.298c0.687,-1.416 1.033,-2.996 1.033,-4.733c0,-1.571 -0.25,-2.846 -0.75,-3.829c-0.787,-1.55 -2.15,-2.325 -4.083,-2.325c-1.713,-0 -2.963,0.662 -3.746,1.983c-0.775,1.317 -1.167,2.908 -1.167,4.767c0,1.787 0.392,3.283 1.167,4.479c0.783,1.192 2.021,1.783 3.712,1.783c1.867,0 3.138,-0.708 3.834,-2.125m1.716,-11.175c1.484,1.442 2.234,3.567 2.234,6.379c-0,2.709 -0.659,4.955 -1.967,6.725c-1.312,1.775 -3.35,2.663 -6.104,2.663c-2.3,-0 -4.125,-0.788 -5.471,-2.354c-1.354,-1.567 -2.033,-3.671 -2.033,-6.317c-0,-2.825 0.712,-5.075 2.137,-6.754c1.425,-1.675 3.342,-2.513 5.746,-2.513c2.154,0 3.971,0.725 5.458,2.171" style="fill:#231f20;fill-rule:nonzero;"/><path d="M832.438,387.406l2.658,-0l0,2.983c0.225,-0.571 0.767,-1.275 1.629,-2.104c0.859,-0.821 1.859,-1.229 2.984,-1.229c0.05,-0 0.141,0.004 0.266,0.021c0.125,0.008 0.342,0.033 0.646,0.075l0,3.016c-0.162,-0.041 -0.321,-0.066 -0.462,-0.079c-0.142,-0.012 -0.305,-0.021 -0.467,-0.021c-1.429,0 -2.525,0.463 -3.288,1.384c-0.77,0.92 -1.158,1.979 -1.158,3.166l0,9.663l-2.808,-0l-0,-16.875Z" style="fill:#231f20;fill-rule:nonzero;"/><path d="M843.616,382.73l2.816,0l0,4.675l2.759,0l-0,2.363l-2.759,-0l0,10.954c0,0.583 0.204,0.979 0.609,1.179c0.229,0.108 0.604,0.171 1.133,0.171c0.137,-0 0.292,-0 0.454,-0.008c0.158,-0.005 0.35,-0.021 0.563,-0.042l-0,2.258c-0.325,0.092 -0.667,0.15 -1.017,0.2c-0.358,0.034 -0.738,0.054 -1.15,0.054c-1.325,0 -2.221,-0.337 -2.696,-1.012c-0.475,-0.679 -0.712,-1.554 -0.712,-2.629l-0,-11.125l-2.259,-0l0,-2.363l2.259,0l-0,-4.675Z" style="fill:#231f20;fill-rule:nonzero;"/><path d="M730.898,415.034c1.6,1.55 2.487,3.305 2.658,5.271l-3.058,0c-0.342,-1.5 -1.021,-2.683 -2.042,-3.562c-1.017,-0.871 -2.442,-1.313 -4.279,-1.313c-2.242,0 -4.042,0.796 -5.429,2.392c-1.375,1.592 -2.067,4.037 -2.067,7.321c0,2.7 0.621,4.887 1.867,6.562c1.241,1.671 3.096,2.513 5.562,2.513c2.263,-0 3.992,-0.875 5.179,-2.629c0.63,-0.93 1.1,-2.142 1.409,-3.65l3.062,-0c-0.266,2.433 -1.158,4.47 -2.679,6.12c-1.808,1.984 -4.246,2.971 -7.329,2.971c-2.65,0 -4.879,-0.812 -6.679,-2.433c-2.367,-2.15 -3.554,-5.463 -3.554,-9.95c-0,-3.404 0.887,-6.2 2.679,-8.379c1.921,-2.363 4.583,-3.55 7.975,-3.55c2.887,-0 5.133,0.775 6.725,2.316" style="fill:#231f20;fill-rule:nonzero;"/><path d="M740.499,433.866c0.6,0.466 1.32,0.704 2.137,0.704c1.004,-0 1.979,-0.229 2.917,-0.683c1.583,-0.755 2.379,-2.005 2.379,-3.746l-0,-2.275c-0.346,0.229 -0.788,0.425 -1.333,0.583c-0.538,0.154 -1.067,0.258 -1.592,0.321l-1.713,0.196c-1.02,0.121 -1.8,0.329 -2.337,0.621c-0.904,0.491 -1.367,1.275 -1.367,2.35c0,0.812 0.3,1.462 0.909,1.929m6.008,-7.646c0.658,-0.088 1.092,-0.354 1.312,-0.825c0.142,-0.242 0.213,-0.6 0.213,-1.067c-0,-0.954 -0.342,-1.646 -1.025,-2.071c-0.688,-0.433 -1.671,-0.65 -2.946,-0.65c-1.475,0 -2.521,0.396 -3.137,1.184c-0.35,0.433 -0.575,1.075 -0.68,1.933l-2.662,0c0.054,-2.083 0.725,-3.533 2.012,-4.35c1.296,-0.812 2.796,-1.225 4.496,-1.225c1.975,0 3.584,0.392 4.821,1.167c1.221,0.775 1.829,1.962 1.829,3.55l0,9.679c0,0.296 0.067,0.529 0.184,0.704c0.12,0.183 0.37,0.275 0.758,0.275c0.121,0 0.267,-0.012 0.417,-0.029c0.162,-0.013 0.32,-0.038 0.5,-0.071l-0,2.071c-0.43,0.125 -0.767,0.208 -0.996,0.237c-0.229,0.03 -0.538,0.05 -0.938,0.05c-0.971,0 -1.671,-0.345 -2.108,-1.029c-0.233,-0.366 -0.392,-0.883 -0.488,-1.546c-0.575,0.759 -1.408,1.425 -2.491,1.98c-1.084,0.566 -2.271,0.845 -3.575,0.845c-1.563,0 -2.846,-0.479 -3.838,-1.433c-0.987,-0.95 -1.483,-2.142 -1.483,-3.571c-0,-1.571 0.487,-2.779 1.462,-3.646c0.975,-0.862 2.259,-1.4 3.846,-1.591l4.517,-0.571Z" style="fill:#231f20;fill-rule:nonzero;"/><path d="M755.349,419.549l2.658,0l-0,2.429c0.8,-0.991 1.642,-1.7 2.533,-2.129c0.896,-0.437 1.888,-0.65 2.979,-0.65c2.392,0 4.005,0.833 4.85,2.504c0.459,0.904 0.692,2.213 0.692,3.917l0,10.812l-2.817,0l0,-10.612c0,-1.029 -0.154,-1.854 -0.454,-2.483c-0.512,-1.05 -1.433,-1.575 -2.762,-1.575c-0.675,-0 -1.234,0.07 -1.671,0.212c-0.779,0.221 -1.467,0.683 -2.054,1.375c-0.479,0.558 -0.784,1.129 -0.929,1.717c-0.146,0.6 -0.213,1.45 -0.213,2.546l0,8.82l-2.812,0l-0,-16.883Z" style="fill:#231f20;fill-rule:nonzero;"/><path d="M776.326,433.866c0.596,0.466 1.317,0.704 2.138,0.704c1.004,-0 1.983,-0.229 2.916,-0.683c1.588,-0.755 2.379,-2.005 2.379,-3.746l0,-2.275c-0.345,0.229 -0.783,0.425 -1.329,0.583c-0.546,0.154 -1.075,0.258 -1.6,0.321l-1.704,0.196c-1.021,0.121 -1.804,0.329 -2.342,0.621c-0.908,0.491 -1.362,1.275 -1.362,2.35c-0,0.812 0.296,1.462 0.904,1.929m6.013,-7.646c0.654,-0.088 1.091,-0.354 1.312,-0.825c0.138,-0.242 0.213,-0.6 0.213,-1.067c-0,-0.954 -0.342,-1.646 -1.034,-2.071c-0.683,-0.433 -1.666,-0.65 -2.946,-0.65c-1.475,0 -2.516,0.396 -3.133,1.184c-0.346,0.433 -0.575,1.075 -0.683,1.933l-2.654,0c0.05,-2.083 0.72,-3.533 2.016,-4.35c1.288,-0.812 2.788,-1.225 4.492,-1.225c1.975,0 3.579,0.392 4.812,1.167c1.225,0.775 1.834,1.962 1.834,3.55l-0,9.679c-0,0.296 0.062,0.529 0.179,0.704c0.121,0.183 0.379,0.275 0.762,0.275c0.125,0 0.267,-0.012 0.425,-0.029c0.159,-0.013 0.317,-0.038 0.5,-0.071l0,2.071c-0.445,0.125 -0.775,0.208 -1.008,0.237c-0.225,0.03 -0.537,0.05 -0.933,0.05c-0.975,0 -1.671,-0.345 -2.104,-1.029c-0.242,-0.366 -0.396,-0.883 -0.492,-1.546c-0.571,0.759 -1.404,1.425 -2.488,1.98c-1.079,0.566 -2.279,0.845 -3.575,0.845c-1.562,0 -2.845,-0.479 -3.841,-1.433c-0.992,-0.95 -1.479,-2.142 -1.479,-3.571c-0,-1.571 0.483,-2.779 1.462,-3.646c0.975,-0.862 2.254,-1.4 3.842,-1.591l4.521,-0.571Z" style="fill:#231f20;fill-rule:nonzero;"/><path d="M794.116,432.741c0.754,1.221 1.963,1.829 3.625,1.829c1.296,-0 2.354,-0.563 3.179,-1.696c0.842,-1.121 1.254,-2.737 1.254,-4.846c0,-2.133 -0.425,-3.708 -1.287,-4.737c-0.858,-1.021 -1.913,-1.529 -3.175,-1.529c-1.408,-0 -2.55,0.545 -3.421,1.633c-0.867,1.092 -1.308,2.7 -1.308,4.817c-0,1.804 0.379,3.316 1.133,4.529m6.308,-12.629c0.496,0.316 1.067,0.862 1.7,1.65l0,-8.492l2.713,-0l-0,23.162l-2.567,0l0,-2.333c-0.65,1.038 -1.416,1.779 -2.316,2.246c-0.892,0.454 -1.917,0.687 -3.063,0.687c-1.858,0 -3.467,-0.791 -4.829,-2.37c-1.358,-1.575 -2.042,-3.671 -2.042,-6.288c0,-2.454 0.621,-4.579 1.867,-6.375c1.242,-1.804 3.017,-2.696 5.325,-2.696c1.279,0 2.35,0.263 3.212,0.809" style="fill:#231f20;fill-rule:nonzero;"/><path d="M812.154,433.866c0.6,0.466 1.312,0.704 2.137,0.704c1.005,-0 1.98,-0.229 2.921,-0.683c1.579,-0.755 2.371,-2.005 2.371,-3.746l0,-2.275c-0.342,0.229 -0.783,0.425 -1.325,0.583c-0.546,0.154 -1.071,0.258 -1.596,0.321l-1.708,0.196c-1.017,0.121 -1.8,0.329 -2.342,0.621c-0.908,0.491 -1.366,1.275 -1.366,2.35c-0,0.812 0.304,1.462 0.908,1.929m6.017,-7.646c0.65,-0.088 1.083,-0.354 1.308,-0.825c0.137,-0.242 0.208,-0.6 0.208,-1.067c0,-0.954 -0.341,-1.646 -1.025,-2.071c-0.687,-0.433 -1.671,-0.65 -2.946,-0.65c-1.475,0 -2.52,0.396 -3.137,1.184c-0.35,0.433 -0.575,1.075 -0.679,1.933l-2.663,0c0.05,-2.083 0.725,-3.533 2.017,-4.35c1.296,-0.812 2.792,-1.225 4.496,-1.225c1.971,0 3.579,0.392 4.816,1.167c1.225,0.775 1.83,1.962 1.83,3.55l-0,9.679c-0,0.296 0.066,0.529 0.183,0.704c0.121,0.183 0.371,0.275 0.758,0.275c0.125,0 0.267,-0.012 0.421,-0.029c0.158,-0.013 0.325,-0.038 0.5,-0.071l0,2.071c-0.433,0.125 -0.771,0.208 -1,0.237c-0.229,0.03 -0.537,0.05 -0.937,0.05c-0.967,0 -1.667,-0.345 -2.109,-1.029c-0.229,-0.366 -0.391,-0.883 -0.483,-1.546c-0.571,0.759 -1.408,1.425 -2.488,1.98c-1.083,0.566 -2.275,0.845 -3.579,0.845c-1.566,0 -2.846,-0.479 -3.841,-1.433c-0.988,-0.95 -1.484,-2.142 -1.484,-3.571c0,-1.571 0.488,-2.779 1.463,-3.646c0.979,-0.862 2.258,-1.4 3.85,-1.591l4.521,-0.571Z" style="fill:#231f20;fill-rule:nonzero;"/><path d="M919.303,381.178l0,2.763l-7.783,-0l-0,20.341l-3.117,0l0,-20.341l-7.787,-0l-0,-2.763l18.687,0Z" style="fill:#231f20;fill-rule:nonzero;"/><path d="M922.001,387.406l2.663,-0l-0,2.983c0.225,-0.571 0.766,-1.275 1.629,-2.104c0.858,-0.821 1.858,-1.229 2.983,-1.229c0.05,-0 0.15,0.004 0.267,0.021c0.125,0.008 0.341,0.033 0.65,0.075l-0,3.016c-0.167,-0.041 -0.325,-0.066 -0.467,-0.079c-0.142,-0.012 -0.296,-0.021 -0.471,-0.021c-1.425,0 -2.521,0.463 -3.287,1.384c-0.767,0.92 -1.15,1.979 -1.15,3.166l-0,9.663l-2.817,-0l0,-16.875Z" style="fill:#231f20;fill-rule:nonzero;"/><path d="M935.693,401.714c0.6,0.475 1.317,0.709 2.138,0.709c1,-0 1.983,-0.229 2.916,-0.679c1.588,-0.759 2.375,-2.005 2.375,-3.746l0,-2.284c-0.337,0.23 -0.779,0.434 -1.325,0.588c-0.541,0.154 -1.071,0.267 -1.596,0.317l-1.708,0.2c-1.021,0.125 -1.8,0.333 -2.337,0.625c-0.909,0.487 -1.363,1.27 -1.363,2.35c0,0.812 0.292,1.458 0.9,1.92m6.013,-7.645c0.654,-0.08 1.091,-0.35 1.312,-0.813c0.138,-0.246 0.217,-0.608 0.217,-1.075c-0,-0.954 -0.35,-1.646 -1.034,-2.071c-0.687,-0.433 -1.67,-0.646 -2.945,-0.646c-1.48,0 -2.521,0.392 -3.142,1.175c-0.342,0.434 -0.567,1.088 -0.671,1.938l-2.658,-0c0.05,-2.083 0.716,-3.538 2.008,-4.346c1.292,-0.821 2.792,-1.233 4.5,-1.233c1.971,-0 3.579,0.391 4.817,1.175c1.221,0.775 1.829,1.958 1.829,3.554l-0,9.671c-0,0.291 0.062,0.529 0.179,0.704c0.121,0.183 0.375,0.271 0.763,0.271c0.12,-0 0.262,-0.004 0.42,-0.021c0.155,-0.021 0.321,-0.038 0.496,-0.075l0,2.067c-0.433,0.137 -0.766,0.212 -1,0.237c-0.229,0.033 -0.541,0.05 -0.933,0.05c-0.975,0 -1.671,-0.346 -2.113,-1.025c-0.225,-0.362 -0.387,-0.887 -0.483,-1.546c-0.579,0.754 -1.412,1.425 -2.492,1.988c-1.079,0.554 -2.275,0.841 -3.575,0.841c-1.566,0 -2.845,-0.483 -3.837,-1.433c-0.992,-0.954 -1.488,-2.142 -1.488,-3.571c0,-1.571 0.492,-2.787 1.467,-3.65c0.971,-0.862 2.258,-1.391 3.846,-1.591l4.517,-0.575Z" style="fill:#231f20;fill-rule:nonzero;"/><path d="M950.543,387.406l2.663,-0l-0,2.429c0.8,-0.992 1.641,-1.704 2.533,-2.129c0.892,-0.438 1.883,-0.65 2.979,-0.65c2.392,-0 4,0.833 4.846,2.5c0.462,0.908 0.692,2.216 0.692,3.916l-0,10.809l-2.809,-0l0,-10.613c0,-1.021 -0.154,-1.854 -0.462,-2.483c-0.509,-1.046 -1.425,-1.571 -2.759,-1.571c-0.679,0 -1.237,0.067 -1.666,0.208c-0.784,0.234 -1.467,0.692 -2.063,1.38c-0.479,0.558 -0.787,1.129 -0.925,1.72c-0.141,0.596 -0.212,1.438 -0.212,2.538l-0,8.821l-2.817,-0l0,-16.875Z" style="fill:#231f20;fill-rule:nonzero;"/><path d="M970.168,398.958c0.083,0.925 0.321,1.629 0.712,2.125c0.725,0.896 1.975,1.341 3.763,1.341c1.062,0 1.991,-0.225 2.8,-0.675c0.804,-0.445 1.208,-1.141 1.208,-2.079c0,-0.721 -0.321,-1.262 -0.971,-1.633c-0.416,-0.225 -1.225,-0.492 -2.446,-0.796l-2.27,-0.567c-1.45,-0.358 -2.525,-0.754 -3.213,-1.191c-1.233,-0.771 -1.842,-1.829 -1.842,-3.188c0,-1.587 0.575,-2.879 1.738,-3.866c1.162,-0.984 2.721,-1.475 4.687,-1.475c2.559,-0 4.417,0.741 5.55,2.229c0.705,0.941 1.055,1.954 1.034,3.046l-2.659,-0c-0.054,-0.63 -0.283,-1.205 -0.7,-1.713c-0.654,-0.737 -1.8,-1.104 -3.429,-1.104c-1.091,-0 -1.912,0.2 -2.475,0.612c-0.558,0.405 -0.837,0.942 -0.837,1.605c-0,0.725 0.362,1.308 1.104,1.745c0.421,0.267 1.05,0.488 1.875,0.688l1.887,0.458c2.05,0.492 3.43,0.967 4.125,1.434c1.109,0.72 1.659,1.858 1.659,3.408c-0,1.5 -0.571,2.796 -1.717,3.887c-1.15,1.092 -2.896,1.638 -5.242,1.638c-2.529,-0 -4.32,-0.571 -5.37,-1.708c-1.05,-1.134 -1.613,-2.542 -1.684,-4.221l2.713,-0Z" style="fill:#231f20;fill-rule:nonzero;"/><path d="M994.964,400.75c0.871,-1.117 1.305,-2.779 1.305,-4.992c-0,-1.354 -0.192,-2.516 -0.58,-3.487c-0.725,-1.871 -2.058,-2.809 -3.991,-2.809c-1.946,0 -3.275,0.988 -3.996,2.959c-0.383,1.062 -0.579,2.4 -0.579,4.033c-0,1.308 0.196,2.421 0.579,3.342c0.733,1.746 2.058,2.629 3.996,2.629c1.308,-0 2.4,-0.558 3.266,-1.675m-10.6,-13.242l2.759,0l-0,2.196c0.571,-0.762 1.179,-1.35 1.858,-1.762c0.95,-0.63 2.063,-0.942 3.354,-0.942c1.904,-0 3.521,0.737 4.85,2.204c1.329,1.471 1.992,3.563 1.992,6.288c-0,3.683 -0.954,6.316 -2.879,7.891c-1.217,1 -2.629,1.504 -4.25,1.504c-1.263,0 -2.325,-0.279 -3.192,-0.829c-0.504,-0.316 -1.067,-0.854 -1.683,-1.621l-0,8.575l-2.809,0l0,-23.504Z" style="fill:#231f20;fill-rule:nonzero;"/><path d="M1012.95,400.298c0.692,-1.416 1.038,-2.996 1.038,-4.733c-0,-1.571 -0.254,-2.846 -0.759,-3.829c-0.783,-1.55 -2.145,-2.325 -4.079,-2.325c-1.712,-0 -2.958,0.662 -3.741,1.983c-0.784,1.317 -1.167,2.908 -1.167,4.767c-0,1.787 0.383,3.283 1.167,4.479c0.783,1.192 2.012,1.783 3.708,1.783c1.862,0 3.137,-0.708 3.833,-2.125m1.717,-11.175c1.487,1.442 2.233,3.567 2.233,6.379c0,2.709 -0.658,4.955 -1.971,6.725c-1.308,1.775 -3.341,2.663 -6.1,2.663c-2.295,-0 -4.12,-0.788 -5.475,-2.354c-1.345,-1.567 -2.025,-3.671 -2.025,-6.317c0,-2.825 0.713,-5.075 2.138,-6.754c1.425,-1.675 3.333,-2.513 5.742,-2.513c2.15,0 3.966,0.725 5.458,2.171" style="fill:#231f20;fill-rule:nonzero;"/><path d="M1020.49,387.406l2.663,-0l-0,2.983c0.22,-0.571 0.762,-1.275 1.629,-2.104c0.854,-0.821 1.854,-1.229 2.983,-1.229c0.042,-0 0.138,0.004 0.263,0.021c0.129,0.008 0.341,0.033 0.645,0.075l0,3.016c-0.162,-0.041 -0.32,-0.066 -0.462,-0.079c-0.146,-0.012 -0.296,-0.021 -0.467,-0.021c-1.425,0 -2.529,0.463 -3.291,1.384c-0.763,0.92 -1.155,1.979 -1.155,3.166l0,9.663l-2.808,-0l0,-16.875Z" style="fill:#231f20;fill-rule:nonzero;"/><path d="M1031.67,382.73l2.812,0l0,4.675l2.763,0l-0,2.363l-2.763,-0l0,10.954c0,0.583 0.209,0.979 0.621,1.179c0.221,0.108 0.6,0.171 1.125,0.171c0.142,-0 0.3,-0 0.454,-0.008c0.159,-0.005 0.35,-0.021 0.563,-0.042l-0,2.258c-0.321,0.092 -0.663,0.15 -1.017,0.2c-0.35,0.034 -0.737,0.054 -1.146,0.054c-1.325,0 -2.225,-0.337 -2.7,-1.012c-0.475,-0.679 -0.712,-1.554 -0.712,-2.629l-0,-11.125l-2.258,-0l-0,-2.363l2.258,0l-0,-4.675Z" style="fill:#231f20;fill-rule:nonzero;"/><path d="M1041.78,398.958c0.083,0.925 0.321,1.629 0.717,2.125c0.721,0.896 1.975,1.341 3.758,1.341c1.063,0 1.996,-0.225 2.804,-0.675c0.804,-0.445 1.209,-1.141 1.209,-2.079c-0,-0.721 -0.321,-1.262 -0.971,-1.633c-0.413,-0.225 -1.229,-0.492 -2.446,-0.796l-2.271,-0.567c-1.462,-0.358 -2.533,-0.754 -3.225,-1.191c-1.221,-0.771 -1.833,-1.829 -1.833,-3.188c-0,-1.587 0.579,-2.879 1.737,-3.866c1.154,-0.984 2.717,-1.475 4.684,-1.475c2.566,-0 4.416,0.741 5.55,2.229c0.708,0.941 1.054,1.954 1.033,3.046l-2.663,-0c-0.05,-0.63 -0.279,-1.205 -0.687,-1.713c-0.663,-0.737 -1.804,-1.104 -3.438,-1.104c-1.091,-0 -1.908,0.2 -2.466,0.612c-0.559,0.405 -0.838,0.942 -0.838,1.605c0,0.725 0.367,1.308 1.104,1.745c0.417,0.267 1.042,0.488 1.867,0.688l1.883,0.458c2.055,0.492 3.43,0.967 4.125,1.434c1.113,0.72 1.663,1.858 1.663,3.408c-0,1.5 -0.571,2.796 -1.717,3.887c-1.15,1.092 -2.896,1.638 -5.237,1.638c-2.525,-0 -4.313,-0.571 -5.367,-1.708c-1.054,-1.134 -1.612,-2.542 -1.692,-4.221l2.717,-0Z" style="fill:#231f20;fill-rule:nonzero;"/><path d="M918.955,415.034c1.596,1.55 2.484,3.305 2.663,5.271l-3.067,0c-0.342,-1.5 -1.021,-2.683 -2.033,-3.562c-1.025,-0.871 -2.446,-1.313 -4.288,-1.313c-2.233,0 -4.046,0.796 -5.421,2.392c-1.387,1.592 -2.07,4.037 -2.07,7.321c-0,2.7 0.62,4.887 1.862,6.562c1.242,1.671 3.096,2.513 5.567,2.513c2.262,-0 3.991,-0.875 5.179,-2.629c0.625,-0.93 1.096,-2.142 1.404,-3.65l3.067,-0c-0.271,2.433 -1.163,4.47 -2.675,6.12c-1.813,1.984 -4.254,2.971 -7.329,2.971c-2.65,0 -4.88,-0.812 -6.684,-2.433c-2.366,-2.15 -3.554,-5.463 -3.554,-9.95c0,-3.404 0.892,-6.2 2.675,-8.379c1.925,-2.363 4.588,-3.55 7.975,-3.55c2.892,-0 5.138,0.775 6.729,2.316" style="fill:#231f20;fill-rule:nonzero;"/><path d="M928.55,433.866c0.604,0.466 1.321,0.704 2.137,0.704c1.009,-0 1.979,-0.229 2.921,-0.683c1.588,-0.755 2.379,-2.005 2.379,-3.746l0,-2.275c-0.346,0.229 -0.783,0.425 -1.329,0.583c-0.546,0.154 -1.075,0.258 -1.596,0.321l-1.708,0.196c-1.021,0.121 -1.804,0.329 -2.338,0.621c-0.912,0.491 -1.366,1.275 -1.366,2.35c-0,0.812 0.3,1.462 0.9,1.929m6.016,-7.646c0.65,-0.088 1.092,-0.354 1.317,-0.825c0.138,-0.242 0.2,-0.6 0.2,-1.067c0,-0.954 -0.342,-1.646 -1.025,-2.071c-0.687,-0.433 -1.662,-0.65 -2.946,-0.65c-1.471,0 -2.521,0.396 -3.133,1.184c-0.346,0.433 -0.575,1.075 -0.679,1.933l-2.663,0c0.054,-2.083 0.725,-3.533 2.017,-4.35c1.292,-0.812 2.792,-1.225 4.496,-1.225c1.975,0 3.583,0.392 4.821,1.167c1.216,0.775 1.829,1.962 1.829,3.55l-0,9.679c-0,0.296 0.058,0.529 0.175,0.704c0.121,0.183 0.375,0.275 0.766,0.275c0.125,0 0.263,-0.012 0.417,-0.029c0.154,-0.013 0.325,-0.038 0.5,-0.071l0,2.071c-0.437,0.125 -0.771,0.208 -0.996,0.237c-0.233,0.03 -0.546,0.05 -0.946,0.05c-0.962,0 -1.666,-0.345 -2.104,-1.029c-0.229,-0.366 -0.387,-0.883 -0.479,-1.546c-0.579,0.759 -1.412,1.425 -2.496,1.98c-1.083,0.566 -2.271,0.845 -3.571,0.845c-1.57,0 -2.85,-0.479 -3.845,-1.433c-0.992,-0.95 -1.488,-2.142 -1.488,-3.571c0,-1.571 0.496,-2.779 1.471,-3.646c0.975,-0.862 2.254,-1.4 3.842,-1.591l4.52,-0.571Z" style="fill:#231f20;fill-rule:nonzero;"/><path d="M943.402,419.549l2.667,0l-0,2.429c0.791,-0.991 1.641,-1.7 2.533,-2.129c0.892,-0.437 1.883,-0.65 2.975,-0.65c2.392,0 4.004,0.833 4.846,2.504c0.458,0.904 0.696,2.213 0.696,3.917l-0,10.812l-2.817,0l-0,-10.612c-0,-1.029 -0.146,-1.854 -0.458,-2.483c-0.513,-1.05 -1.425,-1.575 -2.759,-1.575c-0.675,-0 -1.233,0.07 -1.666,0.212c-0.784,0.221 -1.471,0.683 -2.063,1.375c-0.475,0.558 -0.783,1.129 -0.929,1.717c-0.142,0.6 -0.208,1.45 -0.208,2.546l-0,8.82l-2.817,0l-0,-16.883Z" style="fill:#231f20;fill-rule:nonzero;"/><path d="M964.374,433.866c0.608,0.466 1.32,0.704 2.145,0.704c1,-0 1.98,-0.229 2.913,-0.683c1.587,-0.755 2.387,-2.005 2.387,-3.746l0,-2.275c-0.345,0.229 -0.791,0.425 -1.337,0.583c-0.542,0.154 -1.075,0.258 -1.592,0.321l-1.708,0.196c-1.021,0.121 -1.796,0.329 -2.338,0.621c-0.912,0.491 -1.362,1.275 -1.362,2.35c-0,0.812 0.296,1.462 0.892,1.929m6.025,-7.646c0.65,-0.088 1.083,-0.354 1.308,-0.825c0.137,-0.242 0.212,-0.6 0.212,-1.067c0,-0.954 -0.345,-1.646 -1.033,-2.071c-0.683,-0.433 -1.662,-0.65 -2.942,-0.65c-1.475,0 -2.52,0.396 -3.137,1.184c-0.346,0.433 -0.571,1.075 -0.679,1.933l-2.659,0c0.046,-2.083 0.717,-3.533 2.013,-4.35c1.292,-0.812 2.792,-1.225 4.496,-1.225c1.979,0 3.583,0.392 4.812,1.167c1.229,0.775 1.838,1.962 1.838,3.55l-0,9.679c-0,0.296 0.058,0.529 0.179,0.704c0.121,0.183 0.371,0.275 0.758,0.275c0.125,0 0.267,-0.012 0.425,-0.029c0.154,-0.013 0.317,-0.038 0.496,-0.071l0,2.071c-0.442,0.125 -0.767,0.208 -1,0.237c-0.229,0.03 -0.542,0.05 -0.937,0.05c-0.967,0 -1.671,-0.345 -2.109,-1.029c-0.225,-0.366 -0.387,-0.883 -0.483,-1.546c-0.579,0.759 -1.408,1.425 -2.488,1.98c-1.083,0.566 -2.279,0.845 -3.583,0.845c-1.562,0 -2.837,-0.479 -3.833,-1.433c-0.992,-0.95 -1.488,-2.142 -1.488,-3.571c0,-1.571 0.492,-2.779 1.467,-3.646c0.975,-0.862 2.254,-1.4 3.846,-1.591l4.521,-0.571Z" style="fill:#231f20;fill-rule:nonzero;"/><path d="M982.176,432.741c0.754,1.221 1.958,1.829 3.625,1.829c1.287,-0 2.358,-0.563 3.179,-1.696c0.837,-1.121 1.254,-2.737 1.254,-4.846c-0,-2.133 -0.429,-3.708 -1.292,-4.737c-0.854,-1.021 -1.908,-1.529 -3.175,-1.529c-1.404,-0 -2.546,0.545 -3.416,1.633c-0.875,1.092 -1.313,2.7 -1.313,4.817c0,1.804 0.383,3.316 1.138,4.529m6.308,-12.629c0.496,0.316 1.067,0.862 1.7,1.65l-0,-8.492l2.712,-0l0,23.162l-2.566,0l-0,-2.333c-0.65,1.038 -1.434,1.779 -2.321,2.246c-0.888,0.454 -1.913,0.687 -3.067,0.687c-1.854,0 -3.466,-0.791 -4.825,-2.37c-1.358,-1.575 -2.037,-3.671 -2.037,-6.288c-0,-2.454 0.621,-4.579 1.862,-6.375c1.238,-1.804 3.013,-2.696 5.325,-2.696c1.279,0 2.354,0.263 3.217,0.809" style="fill:#231f20;fill-rule:nonzero;"/><path d="M1000.21,433.866c0.604,0.466 1.317,0.704 2.146,0.704c1.004,-0 1.971,-0.229 2.913,-0.683c1.583,-0.755 2.379,-2.005 2.379,-3.746l-0,-2.275c-0.342,0.229 -0.792,0.425 -1.329,0.583c-0.546,0.154 -1.075,0.258 -1.596,0.321l-1.709,0.196c-1.02,0.121 -1.8,0.329 -2.337,0.621c-0.913,0.491 -1.367,1.275 -1.367,2.35c0,0.812 0.3,1.462 0.9,1.929m6.017,-7.646c0.658,-0.088 1.092,-0.354 1.317,-0.825c0.137,-0.242 0.204,-0.6 0.204,-1.067c-0,-0.954 -0.346,-1.646 -1.029,-2.071c-0.684,-0.433 -1.667,-0.65 -2.946,-0.65c-1.471,0 -2.517,0.396 -3.129,1.184c-0.35,0.433 -0.575,1.075 -0.68,1.933l-2.662,0c0.05,-2.083 0.721,-3.533 2.012,-4.35c1.296,-0.812 2.796,-1.225 4.496,-1.225c1.975,0 3.584,0.392 4.817,1.167c1.225,0.775 1.833,1.962 1.833,3.55l0,9.679c0,0.296 0.059,0.529 0.175,0.704c0.129,0.183 0.379,0.275 0.767,0.275c0.125,0 0.262,-0.012 0.417,-0.029c0.158,-0.013 0.32,-0.038 0.504,-0.071l-0,2.071c-0.442,0.125 -0.775,0.208 -1,0.237c-0.234,0.03 -0.542,0.05 -0.942,0.05c-0.967,0 -1.667,-0.345 -2.108,-1.029c-0.229,-0.366 -0.392,-0.883 -0.484,-1.546c-0.575,0.759 -1.408,1.425 -2.483,1.98c-1.083,0.566 -2.279,0.845 -3.583,0.845c-1.563,0 -2.842,-0.479 -3.838,-1.433c-0.991,-0.95 -1.491,-2.142 -1.491,-3.571c-0,-1.571 0.495,-2.779 1.47,-3.646c0.975,-0.862 2.259,-1.4 3.846,-1.591l4.517,-0.571Z" style="fill:#231f20;fill-rule:nonzero;"/><rect x="556.61" y="381.983" width="27.446" height="55.883" style="fill:#ef4056;"/><rect x="644.926" y="381.983" width="27.442" height="55.883" style="fill:#ef4056;"/><path d="M610.683,393.593l3.925,-7.975l3.888,7.687c0.483,0.809 0.879,0.746 1.654,0.354l3.341,-1.65l-2.17,10.738c-0.459,2.104 0.745,2.725 2.041,1.296l4.771,-5.092l1.267,2.883c0.416,0.875 1.066,0.75 1.912,0.584l4.929,-1.034l-1.654,6.225l-0.037,0.125c-0.188,0.817 -0.579,1.496 0.329,1.884l1.75,0.879l-10.15,8.587c-1.038,1.071 -0.679,1.4 -0.288,2.596l0.934,2.892l-9.471,-1.721c-1.167,-0.292 -1.975,-0.292 -2.017,0.65l0.4,10.867l-2.854,-0l0.383,-10.838c0,-1.071 -0.808,-1.041 -2.72,-0.65l-8.759,1.692l1.134,-2.892c0.391,-1.104 0.487,-1.846 -0.388,-2.596l-10.379,-8.462l1.917,-1.167c0.55,-0.421 0.579,-0.875 0.291,-1.816l-1.946,-6.325l4.996,1.07c1.392,0.325 1.775,0 2.138,-0.779l1.391,-2.854l4.925,5.583c0.88,1.038 2.117,0.355 1.73,-1.133l-2.363,-11.65l3.663,2.108c0.583,0.363 1.195,0.455 1.55,-0.225" style="fill:#ef4056;fill-rule:nonzero;"/></g><g id="Layer-2" serif:id="Layer 2"><path d="M1408.5,903.641l-1.038,-16.179c-0.133,-0.392 -0.766,-0.404 -0.779,-0c-0.062,3.492 -6.225,0.562 -8.412,0.067c-19.025,-4.338 -31.838,10.937 -31.838,23.616c0,16.438 10.871,25.367 24.846,25.367c11.133,-0 16.767,-7.108 18.571,-14.813c0.237,-0.975 -0.854,-0.775 -1.092,0c-3.367,10.734 -11.717,13.45 -15.862,13.388c-8.996,-0.129 -17.355,-7.383 -17.663,-23.942c-0.383,-21.096 23.446,-34.904 32.488,-7.762c0.191,0.579 0.641,0.712 0.779,0.258" style="fill:#231f20;fill-rule:nonzero;"/><path d="M1420.66,935.021c4.079,0.521 7.704,-3.167 7.704,-6.787l0,-8.809c-17.408,6.409 -11.979,15.342 -7.704,15.596m-4.4,-28.792c4.917,-2.075 18.25,-1.425 18.25,4.659l0,18.704c0,5.108 5.042,6.858 6.475,3.421c0.446,-0.45 1.221,-0.125 0.838,0.65c-0.913,3.621 -9.834,4.216 -12.946,-0.65c-17.142,12.5 -28.088,-12.096 -7.571,-12.479c6.404,-0.98 7.117,-4.671 7.117,-7.259c-0,-6.404 -3.359,-6.983 -5.367,-6.983c-2.137,-0 -3.879,0.654 -5.046,3.95c-1.812,6.6 -11.716,0.708 -1.75,-4.013" style="fill:#231f20;fill-rule:nonzero;"/><path d="M1450.89,905.578l-8.354,1.1c-0.513,0.129 -0.513,0.387 0.454,0.646c1.812,0.07 2.971,1.291 2.971,3.95l-0,19.475c-0,2.337 -3.254,4.379 -3.938,4.662c-1.554,0.65 0.775,0.521 0.775,0.521l13.654,-0c0.45,-0 1.871,0.129 0.059,-0.713c-2.067,-0.775 -4.325,-2.462 -4.325,-4.47l-0,-14.625c-0,-6.142 4.008,-9.505 7.958,-9.505c4.138,0 7.571,0.905 7.571,9.459l-0,14.671c-0,2.141 -2.783,4.079 -4.271,4.604c-0.979,0.246 -1.358,0.579 -0.517,0.579l14.555,-0c0.77,0.067 1.104,-0.2 0.391,-0.392c-3.491,-1.358 -3.958,-3.937 -3.958,-4.791l-0,-17.075c-0,-9.78 -9.375,-8.48 -12.671,-8.48c-4.15,0.063 -8.542,2.655 -9,3.813c-0.129,-3.167 -0.512,-3.488 -1.354,-3.429" style="fill:#231f20;fill-rule:nonzero;"/><path d="M1524,935.021c5.158,0 8.608,-2.008 8.608,-14.037c0,-11.455 -3.45,-14.234 -8.608,-14.234c-5.159,0 -9.334,6.679 -9.334,14.354c0,7.684 4.175,13.917 9.334,13.917m8.421,-1.479c-1.43,2.454 -4.925,3.033 -9.259,3.033c-8.221,0 -14.95,-6.333 -14.95,-15.012c0,-7.692 4.346,-16.367 15.396,-16.367c9.975,0 9.904,6.654 9.904,1.096l0,-9.771c0,-5.046 -2.004,-6.533 -3.554,-6.992c-2.267,-0.775 -5.179,-0.908 -0.521,-0.908l8.679,-0.192c-0.525,0.134 0.58,0.134 0.58,0.913l-0,38.171c-0,2.658 0.97,6.737 5.233,7.9c0.392,0.062 0.846,0.321 0.392,0.454l-9.45,1.033c-1.359,0.129 -1.93,-0.512 -2.521,-3.171" style="fill:#231f20;fill-rule:nonzero;"/><path d="M1489,934.993c4.071,0.525 7.7,-3.171 7.7,-6.792l0,-8.804c-17.417,6.404 -11.971,15.337 -7.7,15.596m-4.404,-28.796c4.917,-2.067 18.25,-1.425 18.25,4.654l-0,18.7c-0,5.121 5.042,6.863 6.471,3.438c0.45,-0.459 1.237,-0.13 0.841,0.65c-0.912,3.612 -9.837,4.204 -12.937,-0.65c-17.163,12.491 -28.096,-12.1 -7.571,-12.492c6.404,-0.967 7.108,-4.663 7.108,-7.254c0,-6.404 -3.362,-6.984 -5.366,-6.984c-2.138,0 -3.884,0.655 -5.054,3.95c-1.8,6.605 -11.7,0.713 -1.742,-4.012" style="fill:#231f20;fill-rule:nonzero;"/><path d="M1554.75,935.054c4.075,0.521 7.692,-3.175 7.692,-6.792l-0,-8.8c-17.4,6.405 -11.971,15.334 -7.692,15.592m-4.412,-28.792c4.929,-2.07 18.254,-1.425 18.254,4.659l-0,18.696c-0,5.12 5.046,6.862 6.479,3.441c0.446,-0.462 1.229,-0.141 0.829,0.642c-0.896,3.621 -9.829,4.208 -12.937,-0.642c-17.142,12.488 -28.088,-12.121 -7.571,-12.5c6.412,-0.966 7.112,-4.654 7.112,-7.246c0,-6.4 -3.35,-6.991 -5.366,-6.991c-2.134,-0 -3.884,0.658 -5.046,3.954c-1.809,6.6 -11.713,0.712 -1.754,-4.013" style="fill:#231f20;fill-rule:nonzero;"/><rect x="1542.77" y="888.433" width="7.121" height="14.496" style="fill:#ef4056;"/><rect x="1565.68" y="888.433" width="7.112" height="14.496" style="fill:#ef4056;"/><path d="M1556.8,891.446l1.017,-2.071l1.008,1.992c0.125,0.212 0.221,0.196 0.433,0.1l0.863,-0.433l-0.563,2.787c-0.121,0.546 0.188,0.713 0.529,0.329l1.238,-1.316l0.325,0.75c0.104,0.225 0.275,0.191 0.496,0.154l1.275,-0.271l-0.421,1.612l-0.017,0.034c-0.037,0.212 -0.146,0.391 0.092,0.491l0.454,0.234l-2.633,2.221c-0.267,0.275 -0.175,0.362 -0.075,0.666l0.241,0.759l-2.454,-0.45c-0.304,-0.071 -0.512,-0.071 -0.521,0.17l0.105,2.817l-0.75,0l0.108,-2.812c-0,-0.28 -0.217,-0.263 -0.704,-0.163l-2.279,0.438l0.295,-0.759c0.105,-0.275 0.13,-0.471 -0.091,-0.666l-2.7,-2.196l0.491,-0.304c0.146,-0.113 0.159,-0.225 0.075,-0.463l-0.5,-1.654l1.292,0.283c0.367,0.084 0.467,0 0.554,-0.196l0.375,-0.75l1.275,1.446c0.221,0.275 0.546,0.096 0.438,-0.287l-0.604,-3.017l0.933,0.546c0.162,0.087 0.325,0.112 0.417,-0.067" style="fill:#ef4056;fill-rule:nonzero;"/></g></svg>