<?xml version="1.0" encoding="UTF-8" standalone="no"?><!DOCTYPE svg PUBLIC "-//W3C//DTD SVG 1.1//EN" "http://www.w3.org/Graphics/SVG/1.1/DTD/svg11.dtd"><svg width="100%" height="100%" viewBox="0 0 2084 1263" version="1.1" xmlns="http://www.w3.org/2000/svg" xmlns:xlink="http://www.w3.org/1999/xlink" xml:space="preserve" xmlns:serif="http://www.serif.com/" style="fill-rule:evenodd;clip-rule:evenodd;stroke-linejoin:round;stroke-miterlimit:2;"><rect id="Artboard1" x="0" y="0" width="2083.33" height="1262.17" style="fill:none;"/><g id="Layer-1" serif:id="Layer 1"><path d="M1856.28,200.777l-640.046,0c-16.067,0 -29.096,-13.025 -29.096,-29.092c-0,-16.066 13.029,-29.095 29.096,-29.095l640.054,-0c16.062,-0 29.092,13.029 29.092,29.095c-0,16.071 -13.03,29.092 -29.1,29.092" style="fill:#c7cfe2;fill-rule:nonzero;"/><path d="M867.104,200.777l-640.05,0c-16.071,0 -29.1,-13.025 -29.1,-29.092c0,-16.066 13.029,-29.095 29.1,-29.095l640.054,-0c16.063,-0 29.092,13.029 29.092,29.095c-0.004,16.071 -13.029,29.092 -29.096,29.092" style="fill:#c7cfe2;fill-rule:nonzero;"/><path d="M547.076,84.407c-16.062,0 -29.091,13.03 -29.091,29.092l-0,145.471l58.183,-0l-0,-145.471c-0,-16.062 -13.025,-29.092 -29.092,-29.092" style="fill:#959cb3;fill-rule:nonzero;"/><path d="M1536.26,84.407c-16.071,0 -29.092,13.03 -29.092,29.092l0,145.471l58.184,-0l-0,-145.471c-0,-16.062 -13.03,-29.092 -29.092,-29.092" style="fill:#959cb3;fill-rule:nonzero;"/><path d="M939.838,666.272c-24.1,0 -43.642,-19.533 -43.642,-43.633l-0,-87.284c-0,-24.1 19.542,-43.641 43.642,-43.641c24.1,-0 43.637,19.546 43.637,43.641l0,87.284c0.004,24.1 -19.537,43.633 -43.637,43.633" style="fill:#464655;fill-rule:nonzero;"/><path d="M1143.5,666.272c-24.104,0 -43.646,-19.533 -43.646,-43.633l0,-87.284c0,-24.1 19.542,-43.641 43.646,-43.641c24.096,-0 43.637,19.546 43.637,43.641l0,87.284c0,24.1 -19.541,43.633 -43.637,43.633" style="fill:#464655;fill-rule:nonzero;"/><rect x="983.479" y="549.9" width="116.375" height="290.933" style="fill:#5b5d6e;"/><path d="M692.548,1073.58c-16.067,0 -29.096,-13.029 -29.096,-29.091c-0,-259.163 47.516,-380.013 75.833,-428.963c7.488,-12.938 11.446,-27.854 11.446,-43.125l-0,-80.688c-0,-16.07 13.029,-29.1 29.091,-29.1c16.071,0 29.101,13.03 29.101,29.1l-0,80.688c-0,25.5 -6.667,50.483 -19.275,72.267c-20.446,35.337 -68.009,145.079 -68.009,399.821c0,16.062 -13.029,29.091 -29.091,29.091" style="fill:#c7cfe2;fill-rule:nonzero;"/><path d="M1390.79,1073.58c-16.063,0 -29.1,-13.029 -29.1,-29.091c-0,-254.742 -47.558,-364.484 -68.013,-399.842c-12.595,-21.763 -19.262,-46.746 -19.262,-72.246l-0,-80.688c-0,-16.07 13.021,-29.1 29.087,-29.1c16.071,0 29.1,13.03 29.1,29.1l0,80.688c0,15.271 3.963,30.188 11.442,43.108c28.321,48.967 75.829,169.817 75.829,428.971c0.009,16.071 -13.021,29.1 -29.083,29.1" style="fill:#c7cfe2;fill-rule:nonzero;"/><path d="M867.107,462.622l-116.375,0l0,29.092c0,16.071 13.029,29.096 29.092,29.096l87.283,-0l0,-58.188Z" style="fill:#afb9d2;fill-rule:nonzero;"/><path d="M1303.5,462.622l-87.271,0l0,58.188l87.271,-0c16.071,-0 29.1,-13.03 29.1,-29.096l0,-29.096l-29.1,-0l0,0.004Z" style="fill:#afb9d2;fill-rule:nonzero;"/><path d="M634.361,288.062l-174.567,-0l21.058,-42.105c4.925,-9.858 15,-16.083 26.017,-16.083l80.413,0c11.016,0 21.091,6.225 26.016,16.083l21.063,42.105Z" style="fill:#82889d;fill-rule:nonzero;"/><rect x="459.796" y="288.063" width="174.567" height="58.188" style="fill:#5b5d6e;"/><path d="M1623.54,288.062l-174.562,-0l21.045,-42.105c4.934,-9.858 15.017,-16.083 26.025,-16.083l80.413,0c11.012,0 21.087,6.225 26.017,16.083l21.062,42.105Z" style="fill:#82889d;fill-rule:nonzero;"/><rect x="1448.98" y="288.063" width="174.563" height="58.188" style="fill:#5b5d6e;"/><path d="M1652.63,404.431l-1221.92,0c-16.071,0 -29.1,-13.029 -29.1,-29.091c-0,-16.071 13.029,-29.096 29.1,-29.096l1221.92,-0c16.062,-0 29.091,13.025 29.091,29.096c0,16.07 -13.029,29.091 -29.091,29.091" style="fill:#e4eaf6;fill-rule:nonzero;"/><path d="M1301.6,284.961l-115.187,-11.517c-96.255,-9.629 -193.234,-9.629 -289.492,0l-115.188,11.517c-20.05,2.004 -38.787,10.887 -53.033,25.129l-36.146,36.158l698.238,0l-36.155,-36.158c-14.25,-14.246 -32.987,-23.125 -53.037,-25.129" style="fill:#d7deed;fill-rule:nonzero;"/><path d="M605.263,404.431l32.625,32.625c16.371,16.371 38.567,25.563 61.721,25.563l65.667,-0c27.471,-0 53.341,12.933 69.825,34.912l26.187,34.913c21.979,29.304 56.467,46.55 93.096,46.55l174.563,-0c36.629,-0 71.125,-17.25 93.1,-46.55l26.179,-34.913c16.487,-21.979 42.358,-34.912 69.833,-34.912l65.675,-0c23.134,-0 45.342,-9.196 61.717,-25.563l32.616,-32.625l-872.804,0Z" style="fill:#d7deed;fill-rule:nonzero;"/><rect x="845.288" y="884.475" width="98.188" height="87.283" style="fill:#5b5d6e;"/><path d="M1245.32,1044.49l-290.938,0c-16.062,0 -29.091,-13.029 -29.091,-29.091l-0,-174.567c-0,-16.067 13.029,-29.096 29.091,-29.096l290.938,0c16.071,0 29.092,13.029 29.092,29.096l-0,174.567c-0,16.062 -13.021,29.091 -29.092,29.091" style="fill:#959cb3;fill-rule:nonzero;"/><path d="M838.011,986.3l-29.092,-0c-16.071,-0 -29.096,-13.025 -29.096,-29.092l0,-58.188c0,-16.066 13.025,-29.095 29.096,-29.095l29.092,-0c16.067,-0 29.096,13.029 29.096,29.095l-0,58.188c-0.004,16.071 -13.029,29.092 -29.096,29.092" style="fill:#c5d0e4;fill-rule:nonzero;"/><path d="M1158.04,840.833c48.2,-0 87.28,39.083 87.28,87.287c-0,48.2 -39.08,87.279 -87.28,87.279c-48.208,0 -87.287,-39.079 -87.287,-87.279c-0,-48.204 39.079,-87.287 87.287,-87.287" style="fill:#464655;fill-rule:nonzero;"/><path d="M1158.04,899.019c16.063,0 29.092,13.025 29.092,29.1c0,16.067 -13.029,29.088 -29.092,29.088c-16.062,-0 -29.1,-13.021 -29.1,-29.088c0,-16.075 13.038,-29.1 29.1,-29.1" style="fill:#e4eaf6;fill-rule:nonzero;"/><path d="M998.029,942.66c16.062,-0 29.091,13.029 29.091,29.091c0,16.071 -13.029,29.1 -29.091,29.1c-16.067,0 -29.096,-13.029 -29.096,-29.1c-0,-16.062 13.029,-29.091 29.096,-29.091" style="fill:#e4eaf6;fill-rule:nonzero;"/><path d="M1012.57,913.566l-29.096,0c-8.033,0 -14.55,-6.512 -14.55,-14.546l0,-29.095c0,-8.034 6.517,-14.546 14.55,-14.546l29.096,-0c8.038,-0 14.546,6.512 14.546,14.546l0,29.095c0,8.034 -6.508,14.546 -14.546,14.546" style="fill:#789178;fill-rule:nonzero;"/><path d="M692.548,404.431l-29.096,0c-16.071,0 -29.096,-13.029 -29.096,-29.091l-0,-29.096l87.279,-0l0,29.096c0.004,16.07 -13.025,29.091 -29.087,29.091" style="fill:#ff6464;fill-rule:nonzero;"/><path d="M1448.98,404.431l-29.1,0c-16.067,0 -29.096,-13.029 -29.096,-29.091l-0,-29.096l87.287,-0l0,29.096c0,16.07 -13.029,29.091 -29.091,29.091" style="fill:#ff6464;fill-rule:nonzero;"/></g></svg>