<?xml version="1.0" encoding="UTF-8" standalone="no"?><!DOCTYPE svg PUBLIC "-//W3C//DTD SVG 1.1//EN" "http://www.w3.org/Graphics/SVG/1.1/DTD/svg11.dtd"><svg width="100%" height="100%" viewBox="0 0 2084 1271" version="1.1" xmlns="http://www.w3.org/2000/svg" xmlns:xlink="http://www.w3.org/1999/xlink" xml:space="preserve" xmlns:serif="http://www.serif.com/" style="fill-rule:evenodd;clip-rule:evenodd;stroke-linejoin:round;stroke-miterlimit:2;"><rect id="Page-1" serif:id="Page 1" x="0" y="0" width="2083.33" height="1270.61" style="fill:none;"/><g id="Layer-2" serif:id="Layer 2"><path d="M1617.53,902.083l-1166.67,0l-0,-746.525c-0,-15.537 16.725,-24.308 32.258,-24.308l1111.05,0c15.534,0 23.354,8.771 23.354,24.308l0,746.525Z" style="fill:#4d4d4d;fill-rule:nonzero;"/><rect x="496.692" y="185.417" width="1083.33" height="658.333" style="fill:#f2f2f2;"/><path d="M1713.72,960.417l-1343.12,-0c-21.092,-0 -56.25,-25 -56.25,-25l1455.62,-0c-0,-0 -35.167,25 -56.258,25" style="fill:#808080;fill-rule:nonzero;"/><path d="M1767.53,935.417l-1454.17,-0l-0,-34.467c-0,-7.767 7.287,-11.367 15.054,-11.367l1427.49,0c7.77,0 11.62,3.6 11.62,11.367l0,34.467Z" style="fill:#b3b3b3;fill-rule:nonzero;"/><path d="M1168.74,914.583l-253.158,0c-21.092,0 -21.092,-25 -21.092,-25l295.342,0c-0,0 -0,25 -21.092,25" style="fill:#e6e6e6;fill-rule:nonzero;"/><g opacity="0.3"><path d="M1302.58,960.417l411.141,-0c21.092,-0 56.259,-25 56.259,-25l-2.45,-0l-0,-34.467c-0,-7.767 -3.85,-11.367 -11.621,-11.367l-138.379,0l-0,-734.025c-0,-15.537 -7.821,-24.308 -23.359,-24.308l-704.091,-0l412.5,829.167Z" style="fill:#fff;fill-rule:nonzero;"/></g></g><g id="Layer-3" serif:id="Layer 3"><path d="M1344.61,593.671l-0,-2.617c-0,-3.904 -11.629,-7.062 -25.988,-7.062l-564.121,-0c-14.345,-0 -25.979,3.158 -25.979,7.062l0,2.617c0,3.9 11.634,7.058 25.979,7.058l564.121,0c14.359,0 25.988,-3.158 25.988,-7.058m2.083,-254.167l0,-2.616c0,-3.905 -11.629,-7.063 -25.987,-7.063l-564.121,0c-14.346,0 -25.979,3.158 -25.979,7.063l-0,2.616c-0,3.9 11.633,7.059 25.979,7.059l564.121,-0c14.358,-0 25.987,-3.159 25.987,-7.059m-367.708,-81.675l-0,-2.616c-0,-3.9 -3.159,-7.063 -7.063,-7.063l-237.008,0c-3.9,0 -7.058,3.163 -7.058,7.063l-0,2.616c-0,3.9 3.158,7.063 7.058,7.063l237.008,-0c3.904,-0 7.063,-3.163 7.063,-7.063m40.683,-26.421l-284.754,0c-3.9,0 -7.058,-3.162 -7.058,-7.062l-0,-2.621c-0,-3.896 3.158,-7.058 7.058,-7.058l284.754,-0c3.896,-0 7.058,3.162 7.058,7.058l0,2.621c0,3.904 -3.162,7.062 -7.058,7.062" style="fill:#aea99a;fill-rule:nonzero;"/><path d="M772.418,781.972c0,-10.125 -8.208,-18.333 -18.333,-18.333c-10.125,-0 -18.329,8.208 -18.329,18.333c-0,10.125 8.204,18.329 18.329,18.329c10.125,0 18.333,-8.204 18.333,-18.329m0,-45.833c0,-10.121 -8.208,-18.329 -18.333,-18.329c-10.125,-0 -18.329,8.208 -18.329,18.329c-0,10.129 8.204,18.333 18.329,18.333c10.125,0 18.333,-8.204 18.333,-18.333m0,-45.829c0,-10.125 -8.208,-18.334 -18.333,-18.334c-10.125,0 -18.329,8.209 -18.329,18.334c-0,10.125 8.204,18.333 18.329,18.333c10.125,-0.004 18.333,-8.208 18.333,-18.333m0,-45.834c0,-10.125 -8.208,-18.329 -18.333,-18.329c-10.125,0 -18.329,8.204 -18.329,18.329c-0,10.125 8.204,18.334 18.329,18.334c10.125,-0 18.333,-8.209 18.333,-18.334" style="fill:#b7bcb3;fill-rule:nonzero;"/><path d="M1046.49,643.893l0,-1.117c0,-1.663 -4.87,-3.013 -10.895,-3.013l-236.546,0c-6.013,0 -10.892,1.35 -10.892,3.013l0,1.116c0,1.663 4.879,3.013 10.892,3.013l236.546,0c6.024,0 10.895,-1.35 10.895,-3.013" style="fill:#aea99a;fill-rule:nonzero;"/><path d="M1046.49,692.505l0,-1.117c0,-1.662 -4.87,-3.012 -10.895,-3.012l-236.546,-0c-6.013,-0 -10.892,1.35 -10.892,3.012l0,1.117c0,1.663 4.879,3.013 10.892,3.013l236.546,-0c6.024,-0 10.895,-1.35 10.895,-3.013" style="fill:#aea99a;fill-rule:nonzero;"/><path d="M1046.49,742.503l0,-1.117c0,-1.662 -4.87,-3.012 -10.895,-3.012l-236.546,-0c-6.013,-0 -10.892,1.35 -10.892,3.012l0,1.117c0,1.662 4.879,3.012 10.892,3.012l236.546,0c6.024,0 10.895,-1.35 10.895,-3.012" style="fill:#aea99a;fill-rule:nonzero;"/><path d="M1046.49,784.17l0,-1.117c0,-1.663 -4.87,-3.013 -10.895,-3.013l-236.546,0c-6.013,0 -10.892,1.35 -10.892,3.013l0,1.117c0,1.662 4.879,3.012 10.892,3.012l236.546,0c6.024,0 10.895,-1.35 10.895,-3.012" style="fill:#aea99a;fill-rule:nonzero;"/><path d="M764.972,644.747c0,6.558 -5.321,11.879 -11.883,11.879c-6.559,0 -11.879,-5.321 -11.879,-11.879c-0,-6.562 5.32,-11.883 11.879,-11.883c6.562,-0 11.883,5.321 11.883,11.883" style="fill:#b04230;fill-rule:nonzero;"/></g><g id="Layer-4" serif:id="Layer 4"><path d="M1709.19,1082.41c0,23.012 -18.575,44.675 -41.579,44.675l-429.079,-0c-23.004,-0 -41.842,-21.663 -41.842,-44.675l0,-593.988c0,-23.012 18.838,-40.504 41.842,-40.504l429.079,-0c23.004,-0 41.579,17.492 41.579,40.504l0,593.988Z" style="fill:#4d4d4d;fill-rule:nonzero;"/><rect x="1238.36" y="497.917" width="429.167" height="520.833" style="fill:#f2f2f2;"/><path d="M1487.5,1070.57c0,19.025 -15.396,34.425 -34.425,34.425c-19.025,-0 -34.429,-15.4 -34.429,-34.425c-0,-19.021 15.404,-34.442 34.429,-34.442c19.029,-0 34.425,15.421 34.425,34.442" style="fill:#b3b3b3;fill-rule:nonzero;"/><g opacity="0.3"><path d="M1350.99,447.917l316.621,-0c23.004,-0 41.579,17.491 41.579,40.508l-0,593.983c-0,23.017 -18.575,44.675 -41.579,44.675l-112.454,0l-204.167,-679.166Z" style="fill:#fff;fill-rule:nonzero;"/></g></g><g id="Layer-5" serif:id="Layer 5"><path d="M775.859,1101.98c-0,14.575 -14.538,29.27 -29.129,29.27l-167.23,0c-14.587,0 -28.641,-14.695 -28.641,-29.27l-0,-360.875c-0,-14.58 14.054,-26.521 28.641,-26.521l167.23,-0c14.591,-0 29.129,11.941 29.129,26.521l-0,360.875Z" style="fill:#4d4d4d;fill-rule:nonzero;"/><path d="M775.859,1101.98c-0,14.575 -14.538,29.27 -29.129,29.27l-167.23,0c-14.587,0 -28.641,-14.695 -28.641,-29.27l-0,-360.875c-0,-14.58 14.054,-26.521 28.641,-26.521l167.23,-0c14.591,-0 29.129,11.941 29.129,26.521l-0,360.875Z" style="fill:#4d4d4d;fill-rule:nonzero;"/><rect x="567.525" y="768.75" width="191.667" height="300" style="fill:#fff;"/><path d="M679.108,1098.61c-0,8.821 -7.159,15.988 -15.988,15.988c-8.837,-0 -15.987,-7.167 -15.987,-15.988c-0,-8.825 7.149,-15.987 15.987,-15.987c8.829,-0 15.987,7.162 15.987,15.987" style="fill:#b3b3b3;fill-rule:nonzero;"/><path d="M713.359,750c-0,1.15 -0.934,2.083 -2.084,2.083l-83.333,0c-1.15,0 -2.083,-0.933 -2.083,-2.083c-0,-1.15 0.933,-2.083 2.083,-2.083l83.333,-0c1.15,-0 2.084,0.933 2.084,2.083" style="fill:#b3b3b3;fill-rule:nonzero;"/><g opacity="0.3"><path d="M623.983,714.583l122.746,0c14.591,0 29.129,11.942 29.129,26.521l-0,360.875c-0,14.575 -14.538,29.271 -29.129,29.271l-39.025,0l-83.721,-416.667Z" style="fill:#fff;fill-rule:nonzero;"/></g><g opacity="0.3"><path d="M567.658,764.583l169.3,0c12.299,0 22.233,8.05 22.233,18.638l-0,273.308c-0,10.588 -9.933,20.554 -22.233,20.554l-60.13,0l-109.171,-312.5Z" style="fill:#fff;fill-rule:nonzero;"/></g><rect x="567.525" y="768.75" width="191.667" height="300" style="fill:#f2f2f2;"/><g opacity="0.3"><path d="M607.241,768.75l135.287,0c9.83,0 16.663,7.725 16.663,17.892l-0,262.375c-0,10.166 -6.833,19.733 -16.663,19.733l-48.05,0l-87.237,-300Z" style="fill:#fff;fill-rule:nonzero;"/></g><path d="M630.752,1015.31c-0,-10.125 -8.209,-18.333 -18.334,-18.333c-10.125,0 -18.329,8.208 -18.329,18.333c0,10.125 8.204,18.33 18.329,18.33c10.125,-0 18.334,-8.205 18.334,-18.33m-0,-45.833c-0,-10.121 -8.209,-18.329 -18.334,-18.329c-10.125,-0 -18.329,8.208 -18.329,18.329c0,10.129 8.204,18.333 18.329,18.333c10.125,0 18.334,-8.204 18.334,-18.333m-0,-45.829c-0,-10.125 -8.209,-18.333 -18.334,-18.333c-10.125,-0 -18.329,8.208 -18.329,18.333c0,10.125 8.204,18.333 18.329,18.333c10.125,-0.004 18.334,-8.208 18.334,-18.333m-0,-45.833c-0,-10.125 -8.209,-18.33 -18.334,-18.33c-10.125,0 -18.329,8.205 -18.329,18.33c0,10.125 8.204,18.333 18.329,18.333c10.125,-0 18.334,-8.208 18.334,-18.333" style="fill:#b7bcb3;fill-rule:nonzero;"/><path d="M624.349,877.383c-0,6.558 -5.321,11.879 -11.884,11.879c-6.558,-0 -11.879,-5.321 -11.879,-11.88c0,-6.562 5.321,-11.883 11.879,-11.883c6.563,0 11.884,5.321 11.884,11.884" style="fill:#b04230;fill-rule:nonzero;"/><path d="M749.121,812.35l0,-2.617c0,-3.9 -3.158,-7.063 -7.062,-7.063l-153.296,0c-3.9,0 -7.063,3.163 -7.063,7.063l0,2.617c0,3.9 3.163,7.062 7.063,7.062l153.296,0c3.904,0 7.062,-3.162 7.062,-7.062" style="fill:#aea99a;fill-rule:nonzero;"/><path d="M730.023,878.347l0,-1.275c0,-1.904 -1.541,-3.446 -3.446,-3.446l-74.766,-0c-1.9,-0 -3.442,1.542 -3.442,3.446l0,1.275c0,1.904 1.542,3.446 3.442,3.446l74.766,-0c1.905,-0 3.446,-1.542 3.446,-3.446" style="fill:#aea99a;fill-rule:nonzero;"/><path d="M730.438,922.79l0,-1.275c0,-1.904 -1.541,-3.445 -3.445,-3.445l-74.767,-0c-1.9,-0 -3.442,1.541 -3.442,3.445l0,1.275c0,1.905 1.542,3.446 3.442,3.446l74.767,0c1.904,0 3.445,-1.541 3.445,-3.446" style="fill:#aea99a;fill-rule:nonzero;"/><path d="M732.8,972.79l0,-1.275c0,-1.904 -1.541,-3.445 -3.445,-3.445l-74.767,-0c-1.9,-0 -3.442,1.541 -3.442,3.445l0,1.275c0,1.905 1.542,3.446 3.442,3.446l74.767,0c1.904,0 3.445,-1.541 3.445,-3.446" style="fill:#aea99a;fill-rule:nonzero;"/><path d="M730.023,1017.23l0,-1.275c0,-1.904 -1.541,-3.446 -3.446,-3.446l-74.766,0c-1.9,0 -3.442,1.542 -3.442,3.446l0,1.275c0,1.904 1.542,3.446 3.442,3.446l74.766,-0c1.905,-0 3.446,-1.542 3.446,-3.446" style="fill:#aea99a;fill-rule:nonzero;"/><path d="M1621.69,543.6l0,-2.617c0,-3.9 -6.454,-7.063 -14.429,-7.063l-313.221,0c-7.962,0 -14.425,3.163 -14.425,7.063l0,2.617c0,3.9 6.463,7.062 14.425,7.062l313.221,0c7.975,0 14.429,-3.162 14.429,-7.062" style="fill:#aea99a;fill-rule:nonzero;"/><path d="M1328.67,738.222c0,-10.125 -8.208,-18.333 -18.333,-18.333c-10.125,-0 -18.329,8.208 -18.329,18.333c-0,10.125 8.204,18.329 18.329,18.329c10.125,0 18.333,-8.204 18.333,-18.329m0,-45.833c0,-10.121 -8.208,-18.329 -18.333,-18.329c-10.125,-0 -18.329,8.208 -18.329,18.329c-0,10.129 8.204,18.333 18.329,18.333c10.125,0 18.333,-8.204 18.333,-18.333m0,-45.829c0,-10.125 -8.208,-18.334 -18.333,-18.334c-10.125,0 -18.329,8.209 -18.329,18.334c-0,10.125 8.204,18.333 18.329,18.333c10.125,-0.004 18.333,-8.208 18.333,-18.333m0,-45.834c0,-10.125 -8.208,-18.329 -18.333,-18.329c-10.125,0 -18.329,8.204 -18.329,18.329c-0,10.125 8.204,18.334 18.329,18.334c10.125,-0 18.333,-8.209 18.333,-18.334" style="fill:#b7bcb3;fill-rule:nonzero;"/><path d="M1494.51,601.532l-0,-1.117c-0,-1.662 -2.829,-3.012 -6.329,-3.012l-137.346,-0c-3.492,-0 -6.325,1.35 -6.325,3.012l-0,1.117c-0,1.663 2.833,3.013 6.325,3.013l137.346,-0c3.5,-0 6.329,-1.35 6.329,-3.013" style="fill:#aea99a;fill-rule:nonzero;"/><path d="M1494.51,647.536l-0,-1.116c-0,-1.663 -2.829,-3.013 -6.329,-3.013l-137.346,0c-3.492,0 -6.325,1.35 -6.325,3.013l-0,1.116c-0,1.663 2.833,3.013 6.325,3.013l137.346,-0c3.5,-0 6.329,-1.35 6.329,-3.013" style="fill:#aea99a;fill-rule:nonzero;"/><path d="M1494.51,693.543l-0,-1.117c-0,-1.663 -2.829,-3.013 -6.329,-3.013l-137.346,0c-3.492,0 -6.325,1.35 -6.325,3.013l-0,1.117c-0,1.662 2.833,3.012 6.325,3.012l137.346,0c3.5,0 6.329,-1.35 6.329,-3.012" style="fill:#aea99a;fill-rule:nonzero;"/><path d="M1494.51,739.547l-0,-1.117c-0,-1.663 -2.829,-3.013 -6.329,-3.013l-137.346,0c-3.492,0 -6.325,1.351 -6.325,3.013l-0,1.117c-0,1.662 2.833,3.012 6.325,3.012l137.346,0c3.5,0 6.329,-1.35 6.329,-3.012" style="fill:#aea99a;fill-rule:nonzero;"/><path d="M1618.91,790.823l-0,-2.617c-0,-3.9 -6.454,-7.063 -14.429,-7.063l-313.221,0c-7.963,0 -14.425,3.163 -14.425,7.063l-0,2.616c-0,3.9 6.462,7.063 14.425,7.063l313.221,0c7.975,0 14.429,-3.163 14.429,-7.063" style="fill:#aea99a;fill-rule:nonzero;"/><path d="M1324.5,970.166c-0,-10.125 -8.209,-18.333 -18.334,-18.333c-10.125,-0 -18.329,8.208 -18.329,18.333c0,10.125 8.204,18.329 18.329,18.329c10.125,0 18.334,-8.204 18.334,-18.329m-0,-45.833c-0,-10.121 -8.209,-18.33 -18.334,-18.33c-10.125,0 -18.329,8.209 -18.329,18.33c0,10.129 8.204,18.333 18.329,18.333c10.125,-0 18.334,-8.204 18.334,-18.333m-0,-45.83c-0,-10.125 -8.209,-18.333 -18.334,-18.333c-10.125,0 -18.329,8.208 -18.329,18.333c0,10.125 8.204,18.334 18.329,18.334c10.125,-0.004 18.334,-8.209 18.334,-18.334m-0,-45.833c-0,-10.125 -8.209,-18.329 -18.334,-18.329c-10.125,-0 -18.329,8.204 -18.329,18.329c0,10.125 8.204,18.333 18.329,18.333c10.125,0 18.334,-8.208 18.334,-18.333" style="fill:#b7bcb3;fill-rule:nonzero;"/><path d="M1494.4,832.78l0,-1.117c0,-1.662 -2.829,-3.012 -6.329,-3.012l-137.346,-0c-3.492,-0 -6.325,1.35 -6.325,3.012l0,1.117c0,1.663 2.833,3.013 6.325,3.013l137.346,-0c3.5,-0 6.329,-1.35 6.329,-3.013" style="fill:#aea99a;fill-rule:nonzero;"/><path d="M1494.4,879.077l0,-1.117c0,-1.662 -2.829,-3.012 -6.329,-3.012l-137.346,-0c-3.492,-0 -6.325,1.35 -6.325,3.012l0,1.117c0,1.663 2.833,3.013 6.325,3.013l137.346,-0c3.5,-0 6.329,-1.35 6.329,-3.013" style="fill:#aea99a;fill-rule:nonzero;"/><path d="M1495.1,925.372l-0,-1.116c-0,-1.663 -2.829,-3.013 -6.329,-3.013l-137.346,0c-3.492,0 -6.325,1.35 -6.325,3.013l-0,1.116c-0,1.663 2.833,3.013 6.325,3.013l137.346,-0c3.5,-0 6.329,-1.35 6.329,-3.013" style="fill:#aea99a;fill-rule:nonzero;"/><path d="M1494.4,971.67l0,-1.117c0,-1.663 -2.829,-3.013 -6.329,-3.013l-137.346,0c-3.492,0 -6.325,1.35 -6.325,3.013l0,1.117c0,1.662 2.833,3.012 6.325,3.012l137.346,0c3.5,0 6.329,-1.35 6.329,-3.012" style="fill:#aea99a;fill-rule:nonzero;"/><path d="M774.502,536.139c-0,-10.125 -8.209,-18.334 -18.334,-18.334c-10.125,0 -18.329,8.209 -18.329,18.334c0,10.125 8.204,18.329 18.329,18.329c10.125,-0 18.334,-8.204 18.334,-18.329m-0,-45.834c-0,-10.12 -8.209,-18.329 -18.334,-18.329c-10.125,0 -18.329,8.209 -18.329,18.329c0,10.13 8.204,18.334 18.329,18.334c10.125,-0 18.334,-8.204 18.334,-18.334m-0,-45.829c-0,-10.125 -8.209,-18.333 -18.334,-18.333c-10.125,-0 -18.329,8.208 -18.329,18.333c0,10.125 8.204,18.334 18.329,18.334c10.125,-0.005 18.334,-8.209 18.334,-18.334m-0,-45.833c-0,-10.125 -8.209,-18.329 -18.334,-18.329c-10.125,-0 -18.329,8.204 -18.329,18.329c0,10.125 8.204,18.333 18.329,18.333c10.125,0 18.334,-8.208 18.334,-18.333" style="fill:#b7bcb3;fill-rule:nonzero;"/><path d="M1048.57,398.059l-0,-1.117c-0,-1.662 -4.871,-3.012 -10.896,-3.012l-236.546,0c-6.013,0 -10.892,1.35 -10.892,3.012l0,1.117c0,1.663 4.88,3.013 10.892,3.013l236.546,-0c6.025,-0 10.896,-1.35 10.896,-3.013" style="fill:#aea99a;fill-rule:nonzero;"/><path d="M1048.57,446.672l-0,-1.117c-0,-1.663 -4.871,-3.012 -10.896,-3.012l-236.546,-0c-6.013,-0 -10.892,1.349 -10.892,3.012l0,1.117c0,1.662 4.88,3.012 10.892,3.012l236.546,0c6.025,0 10.896,-1.35 10.896,-3.012" style="fill:#aea99a;fill-rule:nonzero;"/><path d="M1048.57,496.67l-0,-1.117c-0,-1.663 -4.871,-3.013 -10.896,-3.013l-236.546,0c-6.013,0 -10.892,1.35 -10.892,3.013l0,1.117c0,1.662 4.88,3.012 10.892,3.012l236.546,0c6.025,0 10.896,-1.35 10.896,-3.012" style="fill:#aea99a;fill-rule:nonzero;"/><path d="M1048.57,538.336l-0,-1.116c-0,-1.663 -4.871,-3.013 -10.896,-3.013l-236.546,0c-6.013,0 -10.892,1.35 -10.892,3.013l0,1.116c0,1.663 4.88,3.013 10.892,3.013l236.546,-0c6.025,-0 10.896,-1.35 10.896,-3.013" style="fill:#aea99a;fill-rule:nonzero;"/><path d="M1318.1,924.605c-0,6.559 -5.321,11.88 -11.884,11.88c-6.558,-0 -11.879,-5.321 -11.879,-11.88c0,-6.562 5.321,-11.883 11.879,-11.883c6.563,0 11.884,5.321 11.884,11.883" style="fill:#b04230;fill-rule:nonzero;"/><path d="M1322.26,600.997c-0,6.558 -5.321,11.879 -11.884,11.879c-6.558,0 -11.879,-5.321 -11.879,-11.879c0,-6.562 5.321,-11.883 11.879,-11.883c6.563,-0 11.884,5.321 11.884,11.883" style="fill:#b04230;fill-rule:nonzero;"/><path d="M768.097,490.58c0,6.559 -5.321,11.88 -11.883,11.88c-6.559,-0 -11.879,-5.321 -11.879,-11.88c-0,-6.562 5.32,-11.883 11.879,-11.883c6.562,0 11.883,5.321 11.883,11.883" style="fill:#b04230;fill-rule:nonzero;"/></g></svg>