<?xml version="1.0" encoding="UTF-8" standalone="no"?><!DOCTYPE svg PUBLIC "-//W3C//DTD SVG 1.1//EN" "http://www.w3.org/Graphics/SVG/1.1/DTD/svg11.dtd"><svg width="100%" height="100%" viewBox="0 0 2084 1375" version="1.1" xmlns="http://www.w3.org/2000/svg" xmlns:xlink="http://www.w3.org/1999/xlink" xml:space="preserve" xmlns:serif="http://www.serif.com/" style="fill-rule:evenodd;clip-rule:evenodd;stroke-linejoin:round;stroke-miterlimit:2;"><g id="Layer-1" serif:id="Layer 1"><path d="M1387.65,313.062l-657.967,-0c-23.121,-0 -42.042,18.92 -42.042,42.041l0,861.867c0,23.121 18.921,42.046 42.042,42.046l657.967,-0c23.121,-0 42.041,-18.925 42.041,-42.046l0,-861.867c0,-23.121 -18.92,-42.041 -42.041,-42.041" style="fill:#ffd15c;fill-rule:nonzero;"/><rect x="743.346" y="369.15" width="628.533" height="832.433" style="fill:#fff;"/><path d="M1200.56,250l-283.788,0c-25.225,0 -46.25,21.021 -46.25,44.146l0,115.612l374.179,0l0,-115.612c2.104,-23.125 -18.917,-44.146 -44.141,-44.146" style="fill:#ff7058;fill-rule:nonzero;"/><rect x="963.017" y="506.458" width="365.771" height="48.35" style="fill:#ccc;"/><rect x="963.017" y="676.729" width="365.771" height="48.35" style="fill:#ccc;"/><rect x="963.017" y="847" width="365.771" height="48.35" style="fill:#ccc;"/><rect x="963.017" y="1017.27" width="365.771" height="48.35" style="fill:#ccc;"/><rect x="786.442" y="983.638" width="115.613" height="115.612" style="fill:#ccc;"/><rect x="786.442" y="813.371" width="115.613" height="115.613" style="fill:#ccc;"/><rect x="786.442" y="643.096" width="115.613" height="115.612" style="fill:#ccc;"/><rect x="786.442" y="472.825" width="115.613" height="115.613" style="fill:#ccc;"/><path d="M828.479,567.42l-27.325,-29.43l14.713,-14.716l12.612,12.612l42.042,-39.937l14.712,14.712l-56.754,56.759Z" style="fill:#335075;fill-rule:nonzero;"/><path d="M830.583,735.588l-27.33,-27.325l14.713,-14.721l12.617,12.616l42.041,-39.941l14.717,14.716l-56.758,54.655Z" style="fill:#335075;fill-rule:nonzero;"/><path d="M1257.82,966.805l214.412,-212.313l-96.695,-96.7l-214.409,212.317c-2.108,2.1 -2.108,4.204 -4.212,4.204c-0,2.1 -2.096,4.209 -2.096,4.209l-2.104,4.204l-18.921,71.471l-12.613,50.45l50.45,-12.613l73.58,-18.912l4.195,-2.109c2.105,0 4.209,-2.104 4.209,-2.104c-0,0 2.104,-2.104 4.204,-2.104" style="fill:#ffd15c;fill-rule:nonzero;"/><path d="M1177.94,910.046l224.929,-224.929l-29.429,-29.425l-212.317,214.417c-2.1,2.1 -2.1,4.204 -4.204,4.204c0,2.1 -2.104,4.208 -2.104,4.208l-2.104,4.204l25.229,27.321Z" style="fill:#ff7058;fill-rule:nonzero;"/><path d="M1257.82,966.805l214.412,-212.313l-29.429,-29.433l-224.921,222.825l25.221,25.229l4.213,-2.104c2.091,0 4.196,-2.104 4.196,-2.104c2.1,0 4.208,-2.1 6.308,-2.1" style="fill:#ff7058;fill-rule:nonzero;"/><path d="M1169.54,992.029l-35.742,-35.734l-14.713,50.45l50.455,-14.716Z" style="fill:#335075;fill-rule:nonzero;"/><path d="M1554.22,609.442l-37.846,-37.837c-16.809,-16.817 -44.142,-16.817 -58.85,-0l-54.654,54.658l96.695,96.704l54.655,-54.662c16.816,-14.717 16.816,-42.042 -0,-58.863" style="fill:#335075;fill-rule:nonzero;"/><path d="M1177.94,910.046l224.929,-224.929l39.938,39.946l-224.921,222.821l-39.946,-37.838Z" style="fill:#f1543f;fill-rule:nonzero;"/><path d="M1470.13,754.492l-96.696,-96.701l29.43,-29.428l96.696,96.701l-29.43,29.428Z" style="fill:#ffd15c;"/></g></svg>