<?xml version="1.0" encoding="UTF-8" standalone="no"?>
<!DOCTYPE svg PUBLIC "-//W3C//DTD SVG 1.1//EN" "http://www.w3.org/Graphics/SVG/1.1/DTD/svg11.dtd">
<svg width="100%" height="100%" viewBox="0 0 500 300" version="1.1" xmlns="http://www.w3.org/2000/svg" xmlns:xlink="http://www.w3.org/1999/xlink" xml:space="preserve" xmlns:serif="http://www.serif.com/" style="fill-rule:evenodd;clip-rule:evenodd;stroke-linejoin:round;stroke-miterlimit:2;">
    <g id="Layer-1" serif:id="Layer 1">
        <g transform="matrix(1,0,0,1,101.086,233.343)">
            <rect x="0" y="-164.744" width="293.742" height="164.744" style="fill:rgb(230,230,230);fill-rule:nonzero;" />
        </g>
        <g transform="matrix(0.641425,0,0,1,-9.04195,2.932)">
            <rect x="209.072" y="129.068" width="159.021" height="10.902" style="fill:rgb(102,102,102);" />
        </g>
        <g transform="matrix(0.641425,0,0,1,-9.04195,61.834)">
            <rect x="209.072" y="129.068" width="159.021" height="10.902" style="fill:rgb(102,102,102);" />
        </g>
        <g transform="matrix(0,1,1,0,489.63,160.056)">
            <path d="M-104.301,-86.131L86.131,-86.131L67.958,-104.301L-86.129,-104.301L-104.301,-86.131Z" style="fill:rgb(215,222,237);fill-rule:nonzero;" />
        </g>
        <g transform="matrix(-0.707068,0.707146,0.707146,0.707068,144.404,181.257)">
            <path d="M-271.947,94.481L-246.249,94.481L-51.986,-99.803L-51.989,-125.502L-271.947,94.481Z" style="fill:rgb(149,156,179);fill-rule:nonzero;" />
        </g>
        <g transform="matrix(1,0,0,1,385.33,246.187)">
            <path d="M0,-18.172L-274.744,-18.172L-292.915,0L18.17,0L0,-18.172Z" style="fill:rgb(149,156,179);fill-rule:nonzero;" />
        </g>
        <g transform="matrix(0,1,1,0,178.544,160.056)">
            <path d="M-86.129,-67.958L67.958,-67.958L86.13,-86.129L-104.301,-86.129L-86.129,-67.958Z" style="fill:rgb(215,222,237);fill-rule:nonzero;" />
        </g>
        <g transform="matrix(1,0,0,1,0,-71.752)">
            <rect x="125.062" y="180.425" width="244.655" height="10.902" style="fill:rgb(102,102,102);" />
        </g>
        <g transform="matrix(0.63883,0,0,1,-8.49937,4.151)">
            <rect x="209.072" y="147.924" width="159.667" height="10.903" style="fill:rgb(102,102,102);" />
        </g>
        <g transform="matrix(0.641425,0,0,1,-9.04195,41.864)">
            <rect x="209.072" y="129.068" width="159.021" height="10.902" style="fill:rgb(102,102,102);" />
        </g>
        <g transform="matrix(1,0,0,1,0,82.618)">
            <rect x="314.953" y="103.24" width="53.785" height="10.902" style="fill:rgb(102,102,102);" />
        </g>
    </g>
    <g id="Layer-3" serif:id="Layer 3">
        <g transform="matrix(1,0,0,1,166.976,89.9459)">
            <path d="M0,-5.545L0,-4.882L-1.87,-4.882L-1.87,0L-2.617,0L-2.617,-4.882L-4.485,-4.882L-4.485,-5.545L0,-5.545Z" style="fill:rgb(35,31,32);fill-rule:nonzero;" />
        </g>
        <g transform="matrix(1,0,0,1,167.623,89.8615)">
            <path d="M0,-3.966L0.639,-3.966L0.639,-3.25C0.693,-3.387 0.822,-3.556 1.03,-3.755C1.236,-3.952 1.474,-4.05 1.744,-4.05C1.757,-4.05 1.779,-4.049 1.81,-4.045C1.84,-4.043 1.89,-4.037 1.964,-4.027L1.964,-3.303C1.924,-3.313 1.887,-3.319 1.853,-3.322C1.818,-3.325 1.781,-3.327 1.741,-3.327C1.399,-3.327 1.135,-3.216 0.95,-2.995C0.767,-2.774 0.674,-2.52 0.674,-2.235L0.674,0.084L0,0.084L0,-3.966Z" style="fill:rgb(35,31,32);fill-rule:nonzero;" />
        </g>
        <g transform="matrix(1,0,0,1,170.909,86.5596)">
            <path d="M0,2.77C0.145,2.884 0.314,2.94 0.513,2.94C0.753,2.94 0.986,2.885 1.213,2.777C1.594,2.595 1.784,2.296 1.784,1.878L1.784,1.33C1.701,1.385 1.595,1.434 1.464,1.471C1.333,1.508 1.206,1.535 1.08,1.547L0.673,1.595C0.426,1.625 0.238,1.675 0.109,1.745C-0.109,1.862 -0.218,2.05 -0.218,2.309C-0.218,2.504 -0.146,2.659 0,2.77M1.442,0.935C1.6,0.916 1.704,0.851 1.757,0.74C1.792,0.681 1.808,0.594 1.808,0.482C1.808,0.253 1.725,0.087 1.561,-0.015C1.397,-0.119 1.161,-0.17 0.854,-0.17C0.5,-0.17 0.249,-0.076 0.101,0.112C0.017,0.216 -0.037,0.373 -0.06,0.577L-0.701,0.577C-0.687,0.077 -0.526,-0.272 -0.216,-0.466C0.094,-0.663 0.453,-0.762 0.862,-0.762C1.337,-0.762 1.721,-0.668 2.019,-0.48C2.312,-0.294 2.459,-0.01 2.459,0.373L2.459,2.694C2.459,2.764 2.473,2.821 2.502,2.863C2.529,2.907 2.591,2.928 2.684,2.928C2.713,2.928 2.748,2.927 2.784,2.923C2.822,2.918 2.862,2.914 2.905,2.905L2.905,3.401C2.799,3.434 2.719,3.452 2.665,3.458C2.61,3.466 2.535,3.47 2.44,3.47C2.208,3.47 2.038,3.387 1.934,3.224C1.878,3.137 1.84,3.011 1.817,2.853C1.679,3.034 1.479,3.195 1.219,3.33C0.959,3.463 0.674,3.532 0.361,3.532C-0.015,3.532 -0.322,3.416 -0.559,3.188C-0.798,2.959 -0.917,2.674 -0.917,2.331C-0.917,1.954 -0.8,1.662 -0.565,1.455C-0.331,1.248 -0.023,1.121 0.357,1.073L1.442,0.935Z" style="fill:rgb(35,31,32);fill-rule:nonzero;" />
        </g>
        <g transform="matrix(1,0,0,1,174.473,89.8615)">
            <path d="M0,-3.966L0.638,-3.966L0.638,-3.383C0.83,-3.621 1.033,-3.792 1.247,-3.894C1.46,-3.999 1.699,-4.05 1.961,-4.05C2.535,-4.05 2.923,-3.85 3.125,-3.45C3.235,-3.232 3.291,-2.918 3.291,-2.51L3.291,0.084L2.616,0.084L2.616,-2.463C2.616,-2.708 2.579,-2.908 2.507,-3.059C2.383,-3.31 2.163,-3.436 1.843,-3.436C1.682,-3.436 1.547,-3.42 1.443,-3.386C1.256,-3.33 1.09,-3.22 0.949,-3.055C0.834,-2.921 0.761,-2.784 0.727,-2.642C0.692,-2.499 0.675,-2.297 0.675,-2.033L0.675,0.084L0,0.084L0,-3.966Z" style="fill:rgb(35,31,32);fill-rule:nonzero;" />
        </g>
        <g transform="matrix(1,0,0,1,179.182,87.21)">
            <path d="M0,1.458C0.02,1.68 0.079,1.849 0.173,1.968C0.346,2.183 0.646,2.29 1.074,2.29C1.329,2.29 1.554,2.236 1.746,2.128C1.94,2.021 2.038,1.854 2.038,1.629C2.038,1.456 1.96,1.326 1.805,1.237C1.706,1.183 1.51,1.119 1.217,1.046L0.672,0.91C0.322,0.824 0.065,0.729 -0.099,0.624C-0.395,0.439 -0.542,0.185 -0.542,-0.141C-0.542,-0.522 -0.403,-0.832 -0.124,-1.069C0.154,-1.305 0.528,-1.423 1,-1.423C1.615,-1.423 2.06,-1.245 2.332,-0.888C2.502,-0.662 2.585,-0.419 2.58,-0.157L1.942,-0.157C1.929,-0.308 1.874,-0.446 1.776,-0.568C1.618,-0.745 1.343,-0.833 0.951,-0.833C0.689,-0.833 0.493,-0.785 0.358,-0.686C0.224,-0.589 0.158,-0.46 0.158,-0.301C0.158,-0.127 0.245,0.013 0.423,0.118C0.523,0.182 0.673,0.235 0.872,0.283L1.325,0.393C1.816,0.511 2.147,0.625 2.315,0.737C2.58,0.91 2.712,1.183 2.712,1.555C2.712,1.915 2.575,2.226 2.3,2.488C2.024,2.75 1.605,2.881 1.043,2.881C0.436,2.881 0.007,2.744 -0.245,2.471C-0.498,2.199 -0.634,1.861 -0.65,1.458L0,1.458Z" style="fill:rgb(35,31,32);fill-rule:nonzero;" />
        </g>
        <g transform="matrix(1,0,0,1,185.133,88.2611)">
            <path d="M0,0.837C0.209,0.569 0.313,0.17 0.313,-0.361C0.313,-0.686 0.268,-0.965 0.175,-1.198C0,-1.647 -0.32,-1.872 -0.784,-1.872C-1.25,-1.872 -1.57,-1.635 -1.742,-1.162C-1.834,-0.907 -1.88,-0.586 -1.88,-0.194C-1.88,0.12 -1.834,0.387 -1.742,0.608C-1.567,1.027 -1.248,1.239 -0.784,1.239C-0.468,1.239 -0.208,1.105 0,0.837M-2.544,-2.341L-1.88,-2.341L-1.88,-1.814C-1.746,-1.997 -1.597,-2.138 -1.436,-2.237C-1.208,-2.388 -0.939,-2.463 -0.63,-2.463C-0.173,-2.463 0.215,-2.286 0.535,-1.934C0.854,-1.581 1.013,-1.079 1.013,-0.425C1.013,0.459 0.782,1.091 0.321,1.469C0.03,1.709 -0.311,1.83 -0.697,1.83C-1.003,1.83 -1.258,1.763 -1.464,1.631C-1.585,1.555 -1.72,1.426 -1.869,1.242L-1.869,3.3L-2.544,3.3L-2.544,-2.341Z" style="fill:rgb(35,31,32);fill-rule:nonzero;" />
        </g>
        <g transform="matrix(1,0,0,1,189.449,86.8887)">
            <path d="M0,2.101C0.165,1.761 0.248,1.382 0.248,0.965C0.248,0.588 0.188,0.282 0.068,0.046C-0.121,-0.326 -0.448,-0.512 -0.912,-0.512C-1.323,-0.512 -1.623,-0.353 -1.811,-0.036C-1.997,0.28 -2.091,0.662 -2.091,1.108C-2.091,1.537 -1.997,1.896 -1.811,2.183C-1.623,2.469 -1.326,2.611 -0.92,2.611C-0.472,2.611 -0.167,2.441 0,2.101M0.412,-0.581C0.768,-0.235 0.948,0.275 0.948,0.95C0.948,1.6 0.79,2.139 0.476,2.564C0.161,2.99 -0.328,3.203 -0.989,3.203C-1.541,3.203 -1.979,3.014 -2.302,2.638C-2.627,2.262 -2.79,1.757 -2.79,1.122C-2.79,0.444 -2.619,-0.096 -2.277,-0.499C-1.935,-0.901 -1.475,-1.102 -0.898,-1.102C-0.381,-1.102 0.055,-0.928 0.412,-0.581" style="fill:rgb(35,31,32);fill-rule:nonzero;" />
        </g>
        <g transform="matrix(1,0,0,1,191.261,89.8615)">
            <path d="M0,-3.966L0.638,-3.966L0.638,-3.25C0.692,-3.387 0.822,-3.556 1.029,-3.755C1.235,-3.952 1.475,-4.05 1.745,-4.05C1.757,-4.05 1.779,-4.049 1.809,-4.045C1.839,-4.043 1.891,-4.037 1.964,-4.027L1.964,-3.303C1.925,-3.313 1.887,-3.319 1.853,-3.322C1.819,-3.325 1.78,-3.327 1.741,-3.327C1.398,-3.327 1.135,-3.216 0.952,-2.995C0.767,-2.774 0.674,-2.52 0.674,-2.235L0.674,0.084L0,0.084L0,-3.966Z" style="fill:rgb(35,31,32);fill-rule:nonzero;" />
        </g>
        <g transform="matrix(1,0,0,1,193.943,90.0064)">
            <path d="M0,-5.233L0.676,-5.233L0.676,-4.111L1.338,-4.111L1.338,-3.544L0.676,-3.544L0.676,-0.915C0.676,-0.775 0.725,-0.68 0.822,-0.632C0.877,-0.606 0.967,-0.591 1.094,-0.591C1.127,-0.591 1.164,-0.591 1.203,-0.593C1.241,-0.594 1.287,-0.598 1.338,-0.603L1.338,-0.061C1.26,-0.039 1.178,-0.025 1.094,-0.013C1.008,-0.005 0.917,0 0.818,0C0.5,0 0.285,-0.081 0.171,-0.243C0.057,-0.406 0,-0.616 0,-0.874L0,-3.544L-0.542,-3.544L-0.542,-4.111L0,-4.111L0,-5.233Z" style="fill:rgb(35,31,32);fill-rule:nonzero;" />
        </g>
        <g transform="matrix(1,0,0,1,166.891,97.2494)">
            <path d="M0,-4.723C0.384,-4.351 0.597,-3.93 0.638,-3.458L-0.096,-3.458C-0.178,-3.818 -0.341,-4.102 -0.586,-4.313C-0.83,-4.522 -1.172,-4.628 -1.613,-4.628C-2.151,-4.628 -2.583,-4.437 -2.916,-4.054C-3.246,-3.672 -3.412,-3.085 -3.412,-2.297C-3.412,-1.649 -3.263,-1.124 -2.964,-0.722C-2.666,-0.321 -2.221,-0.119 -1.629,-0.119C-1.086,-0.119 -0.671,-0.329 -0.386,-0.75C-0.235,-0.973 -0.122,-1.264 -0.048,-1.626L0.687,-1.626C0.623,-1.042 0.409,-0.553 0.044,-0.157C-0.39,0.319 -0.975,0.556 -1.715,0.556C-2.351,0.556 -2.886,0.361 -3.318,-0.028C-3.886,-0.544 -4.171,-1.339 -4.171,-2.416C-4.171,-3.233 -3.958,-3.904 -3.528,-4.427C-3.067,-4.994 -2.428,-5.279 -1.614,-5.279C-0.921,-5.279 -0.382,-5.093 0,-4.723" style="fill:rgb(35,31,32);fill-rule:nonzero;" />
        </g>
        <g transform="matrix(1,0,0,1,169.195,94.2739)">
            <path d="M0,2.772C0.144,2.884 0.317,2.941 0.513,2.941C0.754,2.941 0.988,2.886 1.213,2.777C1.593,2.596 1.784,2.296 1.784,1.878L1.784,1.332C1.701,1.387 1.595,1.434 1.464,1.472C1.335,1.509 1.208,1.534 1.082,1.549L0.671,1.596C0.426,1.625 0.239,1.675 0.11,1.745C-0.107,1.863 -0.218,2.051 -0.218,2.309C-0.218,2.504 -0.146,2.66 0,2.772M1.442,0.937C1.6,0.916 1.704,0.852 1.757,0.739C1.791,0.681 1.808,0.595 1.808,0.483C1.808,0.254 1.726,0.088 1.562,-0.014C1.397,-0.118 1.161,-0.17 0.855,-0.17C0.501,-0.17 0.25,-0.075 0.102,0.114C0.018,0.218 -0.036,0.372 -0.061,0.578L-0.7,0.578C-0.687,0.078 -0.526,-0.27 -0.217,-0.466C0.094,-0.661 0.454,-0.76 0.862,-0.76C1.336,-0.76 1.722,-0.666 2.019,-0.48C2.312,-0.294 2.458,-0.009 2.458,0.372L2.458,2.695C2.458,2.766 2.474,2.822 2.502,2.864C2.531,2.908 2.591,2.93 2.684,2.93C2.713,2.93 2.748,2.927 2.784,2.923C2.823,2.92 2.861,2.914 2.904,2.906L2.904,3.403C2.801,3.433 2.72,3.453 2.665,3.46C2.61,3.467 2.536,3.472 2.44,3.472C2.207,3.472 2.039,3.389 1.934,3.225C1.878,3.137 1.84,3.013 1.817,2.854C1.679,3.036 1.479,3.196 1.219,3.329C0.959,3.465 0.674,3.532 0.361,3.532C-0.014,3.532 -0.322,3.417 -0.56,3.188C-0.797,2.96 -0.916,2.674 -0.916,2.331C-0.916,1.954 -0.799,1.664 -0.565,1.456C-0.331,1.249 -0.023,1.12 0.358,1.074L1.442,0.937Z" style="fill:rgb(35,31,32);fill-rule:nonzero;" />
        </g>
        <g transform="matrix(1,0,0,1,172.759,97.5779)">
            <path d="M0,-3.968L0.638,-3.968L0.638,-3.385C0.83,-3.623 1.032,-3.793 1.246,-3.896C1.461,-4.001 1.699,-4.052 1.961,-4.052C2.535,-4.052 2.922,-3.852 3.125,-3.451C3.235,-3.234 3.291,-2.92 3.291,-2.511L3.291,0.084L2.615,0.084L2.615,-2.463C2.615,-2.71 2.578,-2.908 2.506,-3.059C2.383,-3.311 2.162,-3.437 1.843,-3.437C1.681,-3.437 1.547,-3.42 1.442,-3.386C1.255,-3.333 1.09,-3.222 0.949,-3.056C0.834,-2.922 0.761,-2.785 0.726,-2.644C0.691,-2.5 0.675,-2.296 0.675,-2.033L0.675,0.084L0,0.084L0,-3.968Z" style="fill:rgb(35,31,32);fill-rule:nonzero;" />
        </g>
        <g transform="matrix(1,0,0,1,177.794,94.2739)">
            <path d="M0,2.772C0.143,2.884 0.316,2.941 0.513,2.941C0.754,2.941 0.989,2.886 1.213,2.777C1.594,2.596 1.784,2.296 1.784,1.878L1.784,1.332C1.701,1.387 1.596,1.434 1.465,1.472C1.334,1.509 1.207,1.534 1.081,1.549L0.672,1.596C0.427,1.625 0.239,1.675 0.11,1.745C-0.108,1.863 -0.217,2.051 -0.217,2.309C-0.217,2.504 -0.146,2.66 0,2.772M1.443,0.937C1.6,0.916 1.705,0.852 1.758,0.739C1.791,0.681 1.809,0.595 1.809,0.483C1.809,0.254 1.727,0.088 1.561,-0.014C1.397,-0.118 1.161,-0.17 0.854,-0.17C0.5,-0.17 0.25,-0.075 0.102,0.114C0.019,0.218 -0.036,0.372 -0.062,0.578L-0.699,0.578C-0.687,0.078 -0.526,-0.27 -0.215,-0.466C0.094,-0.661 0.454,-0.76 0.863,-0.76C1.337,-0.76 1.722,-0.666 2.018,-0.48C2.312,-0.294 2.458,-0.009 2.458,0.372L2.458,2.695C2.458,2.766 2.473,2.822 2.501,2.864C2.53,2.908 2.592,2.93 2.684,2.93C2.714,2.93 2.748,2.927 2.786,2.923C2.824,2.92 2.862,2.914 2.906,2.906L2.906,3.403C2.799,3.433 2.72,3.453 2.664,3.46C2.61,3.467 2.535,3.472 2.44,3.472C2.206,3.472 2.039,3.389 1.935,3.225C1.877,3.137 1.84,3.013 1.817,2.854C1.68,3.036 1.48,3.196 1.22,3.329C0.961,3.465 0.673,3.532 0.362,3.532C-0.013,3.532 -0.321,3.417 -0.56,3.188C-0.798,2.96 -0.915,2.674 -0.915,2.331C-0.915,1.954 -0.799,1.664 -0.564,1.456C-0.33,1.249 -0.023,1.12 0.358,1.074L1.443,0.937Z" style="fill:rgb(35,31,32);fill-rule:nonzero;" />
        </g>
        <g transform="matrix(1,0,0,1,182.063,93.1329)">
            <path d="M0,3.643C0.181,3.936 0.471,4.082 0.87,4.082C1.181,4.082 1.435,3.947 1.633,3.675C1.835,3.406 1.934,3.018 1.934,2.512C1.934,2 1.832,1.622 1.625,1.375C1.419,1.13 1.166,1.008 0.863,1.008C0.525,1.008 0.251,1.139 0.042,1.4C-0.166,1.662 -0.272,2.048 -0.272,2.556C-0.272,2.989 -0.181,3.352 0,3.643M1.514,0.612C1.633,0.688 1.77,0.819 1.922,1.008L1.922,-1.03L2.573,-1.03L2.573,4.529L1.957,4.529L1.957,3.969C1.801,4.218 1.617,4.396 1.401,4.508C1.187,4.617 0.941,4.673 0.666,4.673C0.22,4.673 -0.166,4.483 -0.493,4.104C-0.819,3.726 -0.983,3.223 -0.983,2.595C-0.983,2.006 -0.834,1.496 -0.535,1.065C-0.237,0.632 0.189,0.418 0.743,0.418C1.05,0.418 1.307,0.481 1.514,0.612" style="fill:rgb(35,31,32);fill-rule:nonzero;" />
        </g>
        <g transform="matrix(1,0,0,1,186.393,94.2739)">
            <path d="M0,2.772C0.144,2.884 0.315,2.941 0.513,2.941C0.754,2.941 0.988,2.886 1.214,2.777C1.593,2.596 1.783,2.296 1.783,1.878L1.783,1.332C1.701,1.387 1.595,1.434 1.465,1.472C1.334,1.509 1.208,1.534 1.082,1.549L0.672,1.596C0.428,1.625 0.24,1.675 0.11,1.745C-0.108,1.863 -0.218,2.051 -0.218,2.309C-0.218,2.504 -0.145,2.66 0,2.772M1.444,0.937C1.6,0.916 1.704,0.852 1.758,0.739C1.791,0.681 1.808,0.595 1.808,0.483C1.808,0.254 1.726,0.088 1.562,-0.014C1.397,-0.118 1.161,-0.17 0.855,-0.17C0.501,-0.17 0.25,-0.075 0.102,0.114C0.018,0.218 -0.036,0.372 -0.061,0.578L-0.7,0.578C-0.688,0.078 -0.526,-0.27 -0.216,-0.466C0.095,-0.661 0.454,-0.76 0.863,-0.76C1.336,-0.76 1.722,-0.666 2.019,-0.48C2.313,-0.294 2.458,-0.009 2.458,0.372L2.458,2.695C2.458,2.766 2.474,2.822 2.502,2.864C2.531,2.908 2.591,2.93 2.684,2.93C2.714,2.93 2.748,2.927 2.785,2.923C2.823,2.92 2.863,2.914 2.905,2.906L2.905,3.403C2.801,3.433 2.72,3.453 2.665,3.46C2.61,3.467 2.536,3.472 2.44,3.472C2.208,3.472 2.04,3.389 1.934,3.225C1.879,3.137 1.84,3.013 1.818,2.854C1.681,3.036 1.48,3.196 1.221,3.329C0.961,3.465 0.675,3.532 0.362,3.532C-0.014,3.532 -0.321,3.417 -0.56,3.188C-0.797,2.96 -0.916,2.674 -0.916,2.331C-0.916,1.954 -0.799,1.664 -0.565,1.456C-0.33,1.249 -0.023,1.12 0.359,1.074L1.444,0.937Z" style="fill:rgb(35,31,32);fill-rule:nonzero;" />
        </g>
        <g transform="matrix(1,0,0,1,212.108,89.9459)">
            <path d="M0,-5.545L0,-4.882L-1.868,-4.882L-1.868,0L-2.616,0L-2.616,-4.882L-4.485,-4.882L-4.485,-5.545L0,-5.545Z" style="fill:rgb(35,31,32);fill-rule:nonzero;" />
        </g>
        <g transform="matrix(1,0,0,1,212.756,89.8615)">
            <path d="M0,-3.966L0.639,-3.966L0.639,-3.25C0.693,-3.387 0.823,-3.556 1.03,-3.755C1.236,-3.952 1.476,-4.05 1.746,-4.05C1.758,-4.05 1.782,-4.049 1.81,-4.045C1.84,-4.043 1.892,-4.037 1.966,-4.027L1.966,-3.303C1.926,-3.313 1.888,-3.319 1.854,-3.322C1.82,-3.325 1.783,-3.327 1.741,-3.327C1.399,-3.327 1.136,-3.216 0.952,-2.995C0.768,-2.774 0.676,-2.52 0.676,-2.235L0.676,0.084L0,0.084L0,-3.966Z" style="fill:rgb(35,31,32);fill-rule:nonzero;" />
        </g>
        <g transform="matrix(1,0,0,1,216.042,86.5596)">
            <path d="M0,2.77C0.144,2.884 0.316,2.94 0.513,2.94C0.753,2.94 0.989,2.885 1.213,2.777C1.594,2.595 1.783,2.296 1.783,1.878L1.783,1.33C1.702,1.385 1.596,1.434 1.465,1.471C1.335,1.508 1.208,1.535 1.082,1.547L0.672,1.595C0.427,1.625 0.24,1.675 0.111,1.745C-0.107,1.862 -0.216,2.05 -0.216,2.309C-0.216,2.504 -0.146,2.659 0,2.77M1.443,0.935C1.6,0.916 1.705,0.851 1.758,0.74C1.791,0.681 1.81,0.594 1.81,0.482C1.81,0.253 1.726,0.087 1.562,-0.015C1.397,-0.119 1.161,-0.17 0.855,-0.17C0.5,-0.17 0.25,-0.076 0.101,0.112C0.019,0.216 -0.035,0.373 -0.06,0.577L-0.698,0.577C-0.686,0.077 -0.526,-0.272 -0.216,-0.466C0.094,-0.663 0.454,-0.762 0.864,-0.762C1.337,-0.762 1.723,-0.668 2.02,-0.48C2.313,-0.294 2.459,-0.01 2.459,0.373L2.459,2.694C2.459,2.764 2.474,2.821 2.502,2.863C2.531,2.907 2.592,2.928 2.685,2.928C2.714,2.928 2.748,2.927 2.786,2.923C2.823,2.918 2.863,2.914 2.905,2.905L2.905,3.401C2.801,3.434 2.721,3.452 2.665,3.458C2.61,3.466 2.535,3.47 2.441,3.47C2.207,3.47 2.04,3.387 1.934,3.224C1.88,3.137 1.841,3.011 1.818,2.853C1.679,3.034 1.479,3.195 1.22,3.33C0.961,3.463 0.674,3.532 0.362,3.532C-0.014,3.532 -0.321,3.416 -0.559,3.188C-0.797,2.959 -0.916,2.674 -0.916,2.331C-0.916,1.954 -0.798,1.662 -0.564,1.455C-0.331,1.248 -0.022,1.121 0.359,1.073L1.443,0.935Z" style="fill:rgb(35,31,32);fill-rule:nonzero;" />
        </g>
        <g transform="matrix(1,0,0,1,219.606,89.8615)">
            <path d="M0,-3.966L0.639,-3.966L0.639,-3.383C0.831,-3.621 1.033,-3.792 1.247,-3.894C1.461,-3.999 1.699,-4.05 1.962,-4.05C2.536,-4.05 2.922,-3.85 3.125,-3.45C3.236,-3.232 3.291,-2.918 3.291,-2.51L3.291,0.084L2.617,0.084L2.617,-2.463C2.617,-2.708 2.58,-2.908 2.506,-3.059C2.384,-3.31 2.164,-3.436 1.844,-3.436C1.681,-3.436 1.547,-3.42 1.444,-3.386C1.256,-3.33 1.092,-3.22 0.949,-3.055C0.834,-2.921 0.76,-2.784 0.727,-2.642C0.693,-2.499 0.676,-2.297 0.676,-2.033L0.676,0.084L0,0.084L0,-3.966Z" style="fill:rgb(35,31,32);fill-rule:nonzero;" />
        </g>
        <g transform="matrix(1,0,0,1,224.316,87.21)">
            <path d="M0,1.458C0.02,1.68 0.077,1.849 0.171,1.968C0.345,2.183 0.645,2.29 1.074,2.29C1.329,2.29 1.552,2.236 1.746,2.128C1.939,2.021 2.036,1.854 2.036,1.629C2.036,1.456 1.959,1.326 1.803,1.237C1.703,1.183 1.509,1.119 1.216,1.046L0.671,0.91C0.323,0.824 0.065,0.729 -0.1,0.624C-0.396,0.439 -0.542,0.185 -0.542,-0.141C-0.542,-0.522 -0.404,-0.832 -0.125,-1.069C0.154,-1.305 0.528,-1.423 1,-1.423C1.614,-1.423 2.06,-1.245 2.332,-0.888C2.501,-0.662 2.585,-0.419 2.58,-0.157L1.942,-0.157C1.929,-0.308 1.874,-0.446 1.774,-0.568C1.617,-0.745 1.342,-0.833 0.951,-0.833C0.689,-0.833 0.492,-0.785 0.357,-0.686C0.223,-0.589 0.156,-0.46 0.156,-0.301C0.156,-0.127 0.243,0.013 0.421,0.118C0.522,0.182 0.673,0.235 0.871,0.283L1.324,0.393C1.816,0.511 2.147,0.625 2.314,0.737C2.58,0.91 2.712,1.183 2.712,1.555C2.712,1.915 2.575,2.226 2.3,2.488C2.024,2.75 1.605,2.881 1.042,2.881C0.435,2.881 0.005,2.744 -0.247,2.471C-0.499,2.199 -0.634,1.861 -0.651,1.458L0,1.458Z" style="fill:rgb(35,31,32);fill-rule:nonzero;" />
        </g>
        <g transform="matrix(1,0,0,1,230.267,88.2611)">
            <path d="M0,0.837C0.209,0.569 0.313,0.17 0.313,-0.361C0.313,-0.686 0.267,-0.965 0.174,-1.198C0,-1.647 -0.32,-1.872 -0.784,-1.872C-1.251,-1.872 -1.57,-1.635 -1.743,-1.162C-1.835,-0.907 -1.882,-0.586 -1.882,-0.194C-1.882,0.12 -1.835,0.387 -1.743,0.608C-1.567,1.027 -1.249,1.239 -0.784,1.239C-0.47,1.239 -0.208,1.105 0,0.837M-2.544,-2.341L-1.882,-2.341L-1.882,-1.814C-1.745,-1.997 -1.599,-2.138 -1.436,-2.237C-1.208,-2.388 -0.941,-2.463 -0.631,-2.463C-0.174,-2.463 0.214,-2.286 0.533,-1.934C0.852,-1.581 1.011,-1.079 1.011,-0.425C1.011,0.459 0.782,1.091 0.32,1.469C0.028,1.709 -0.311,1.83 -0.7,1.83C-1.003,1.83 -1.258,1.763 -1.466,1.631C-1.587,1.555 -1.722,1.426 -1.87,1.242L-1.87,3.3L-2.544,3.3L-2.544,-2.341Z" style="fill:rgb(35,31,32);fill-rule:nonzero;" />
        </g>
        <g transform="matrix(1,0,0,1,234.583,86.8887)">
            <path d="M0,2.101C0.166,1.761 0.249,1.382 0.249,0.965C0.249,0.588 0.188,0.282 0.067,0.046C-0.121,-0.326 -0.448,-0.512 -0.912,-0.512C-1.323,-0.512 -1.622,-0.353 -1.81,-0.036C-1.998,0.28 -2.09,0.662 -2.09,1.108C-2.09,1.537 -1.998,1.896 -1.81,2.183C-1.622,2.469 -1.327,2.611 -0.92,2.611C-0.473,2.611 -0.167,2.441 0,2.101M0.412,-0.581C0.769,-0.235 0.948,0.275 0.948,0.95C0.948,1.6 0.79,2.139 0.475,2.564C0.161,2.99 -0.327,3.203 -0.989,3.203C-1.54,3.203 -1.978,3.014 -2.303,2.638C-2.626,2.262 -2.789,1.757 -2.789,1.122C-2.789,0.444 -2.618,-0.096 -2.276,-0.499C-1.934,-0.901 -1.476,-1.102 -0.898,-1.102C-0.382,-1.102 0.054,-0.928 0.412,-0.581" style="fill:rgb(35,31,32);fill-rule:nonzero;" />
        </g>
        <g transform="matrix(1,0,0,1,236.394,89.8615)">
            <path d="M0,-3.966L0.639,-3.966L0.639,-3.25C0.692,-3.387 0.822,-3.556 1.03,-3.755C1.235,-3.952 1.475,-4.05 1.746,-4.05C1.756,-4.05 1.779,-4.049 1.809,-4.045C1.84,-4.043 1.891,-4.037 1.964,-4.027L1.964,-3.303C1.925,-3.313 1.887,-3.319 1.853,-3.322C1.818,-3.325 1.782,-3.327 1.741,-3.327C1.399,-3.327 1.134,-3.216 0.951,-2.995C0.768,-2.774 0.674,-2.52 0.674,-2.235L0.674,0.084L0,0.084L0,-3.966Z" style="fill:rgb(35,31,32);fill-rule:nonzero;" />
        </g>
        <g transform="matrix(1,0,0,1,239.076,90.0064)">
            <path d="M0,-5.233L0.675,-5.233L0.675,-4.111L1.338,-4.111L1.338,-3.544L0.675,-3.544L0.675,-0.915C0.675,-0.775 0.725,-0.68 0.824,-0.632C0.877,-0.606 0.968,-0.591 1.094,-0.591C1.128,-0.591 1.166,-0.591 1.203,-0.593C1.241,-0.594 1.287,-0.598 1.338,-0.603L1.338,-0.061C1.261,-0.039 1.179,-0.025 1.094,-0.013C1.01,-0.005 0.917,0 0.819,0C0.501,0 0.285,-0.081 0.171,-0.243C0.057,-0.406 0,-0.616 0,-0.874L0,-3.544L-0.542,-3.544L-0.542,-4.111L0,-4.111L0,-5.233Z" style="fill:rgb(35,31,32);fill-rule:nonzero;" />
        </g>
        <g transform="matrix(1,0,0,1,241.502,87.21)">
            <path d="M0,1.458C0.02,1.68 0.077,1.849 0.172,1.968C0.345,2.183 0.646,2.29 1.074,2.29C1.329,2.29 1.553,2.236 1.747,2.128C1.94,2.021 2.037,1.854 2.037,1.629C2.037,1.456 1.96,1.326 1.804,1.237C1.705,1.183 1.509,1.119 1.217,1.046L0.672,0.91C0.321,0.824 0.064,0.729 -0.102,0.624C-0.395,0.439 -0.542,0.185 -0.542,-0.141C-0.542,-0.522 -0.403,-0.832 -0.125,-1.069C0.152,-1.305 0.527,-1.423 0.999,-1.423C1.615,-1.423 2.059,-1.245 2.331,-0.888C2.501,-0.662 2.584,-0.419 2.579,-0.157L1.94,-0.157C1.928,-0.308 1.873,-0.446 1.775,-0.568C1.616,-0.745 1.342,-0.833 0.95,-0.833C0.688,-0.833 0.492,-0.785 0.358,-0.686C0.224,-0.589 0.157,-0.46 0.157,-0.301C0.157,-0.127 0.245,0.013 0.422,0.118C0.522,0.182 0.672,0.235 0.87,0.283L1.322,0.393C1.815,0.511 2.145,0.625 2.312,0.737C2.579,0.91 2.711,1.183 2.711,1.555C2.711,1.915 2.574,2.226 2.299,2.488C2.023,2.75 1.604,2.881 1.042,2.881C0.436,2.881 0.007,2.744 -0.246,2.471C-0.499,2.199 -0.633,1.861 -0.652,1.458L0,1.458Z" style="fill:rgb(35,31,32);fill-rule:nonzero;" />
        </g>
        <g transform="matrix(1,0,0,1,212.025,97.2494)">
            <path d="M0,-4.723C0.383,-4.351 0.596,-3.93 0.639,-3.458L-0.097,-3.458C-0.179,-3.818 -0.342,-4.102 -0.585,-4.313C-0.831,-4.522 -1.172,-4.628 -1.614,-4.628C-2.15,-4.628 -2.585,-4.437 -2.915,-4.054C-3.248,-3.672 -3.412,-3.085 -3.412,-2.297C-3.412,-1.649 -3.263,-1.124 -2.965,-0.722C-2.667,-0.321 -2.222,-0.119 -1.629,-0.119C-1.086,-0.119 -0.671,-0.329 -0.386,-0.75C-0.236,-0.973 -0.123,-1.264 -0.049,-1.626L0.687,-1.626C0.622,-1.042 0.408,-0.553 0.045,-0.157C-0.39,0.319 -0.976,0.556 -1.714,0.556C-2.35,0.556 -2.885,0.361 -3.318,-0.028C-3.886,-0.544 -4.171,-1.339 -4.171,-2.416C-4.171,-3.233 -3.957,-3.904 -3.529,-4.427C-3.067,-4.994 -2.428,-5.279 -1.615,-5.279C-0.921,-5.279 -0.382,-5.093 0,-4.723" style="fill:rgb(35,31,32);fill-rule:nonzero;" />
        </g>
        <g transform="matrix(1,0,0,1,214.328,94.2739)">
            <path d="M0,2.772C0.145,2.884 0.317,2.941 0.513,2.941C0.755,2.941 0.988,2.886 1.214,2.777C1.595,2.596 1.785,2.296 1.785,1.878L1.785,1.332C1.702,1.387 1.597,1.434 1.466,1.472C1.335,1.509 1.208,1.534 1.083,1.549L0.673,1.596C0.428,1.625 0.24,1.675 0.112,1.745C-0.107,1.863 -0.216,2.051 -0.216,2.309C-0.216,2.504 -0.144,2.66 0,2.772M1.444,0.937C1.6,0.916 1.706,0.852 1.76,0.739C1.793,0.681 1.808,0.595 1.808,0.483C1.808,0.254 1.726,0.088 1.562,-0.014C1.397,-0.118 1.163,-0.17 0.855,-0.17C0.502,-0.17 0.25,-0.075 0.103,0.114C0.02,0.218 -0.035,0.372 -0.06,0.578L-0.699,0.578C-0.686,0.078 -0.525,-0.27 -0.215,-0.466C0.095,-0.661 0.455,-0.76 0.864,-0.76C1.338,-0.76 1.724,-0.666 2.021,-0.48C2.313,-0.294 2.46,-0.009 2.46,0.372L2.46,2.695C2.46,2.766 2.474,2.822 2.502,2.864C2.531,2.908 2.592,2.93 2.686,2.93C2.716,2.93 2.749,2.927 2.786,2.923C2.823,2.92 2.864,2.914 2.906,2.906L2.906,3.403C2.801,3.433 2.721,3.453 2.667,3.46C2.611,3.467 2.536,3.472 2.44,3.472C2.209,3.472 2.04,3.389 1.935,3.225C1.88,3.137 1.842,3.013 1.82,2.854C1.681,3.036 1.481,3.196 1.221,3.329C0.961,3.465 0.676,3.532 0.364,3.532C-0.013,3.532 -0.32,3.417 -0.559,3.188C-0.797,2.96 -0.916,2.674 -0.916,2.331C-0.916,1.954 -0.797,1.664 -0.563,1.456C-0.329,1.249 -0.022,1.12 0.359,1.074L1.444,0.937Z" style="fill:rgb(35,31,32);fill-rule:nonzero;" />
        </g>
        <g transform="matrix(1,0,0,1,217.892,97.5779)">
            <path d="M0,-3.968L0.64,-3.968L0.64,-3.385C0.83,-3.623 1.034,-3.793 1.248,-3.896C1.462,-4.001 1.7,-4.052 1.962,-4.052C2.536,-4.052 2.923,-3.852 3.125,-3.451C3.235,-3.234 3.292,-2.92 3.292,-2.511L3.292,0.084L2.616,0.084L2.616,-2.463C2.616,-2.71 2.581,-2.908 2.506,-3.059C2.383,-3.311 2.164,-3.437 1.844,-3.437C1.682,-3.437 1.548,-3.42 1.444,-3.386C1.256,-3.333 1.091,-3.222 0.949,-3.056C0.835,-2.922 0.761,-2.785 0.726,-2.644C0.692,-2.5 0.676,-2.296 0.676,-2.033L0.676,0.084L0,0.084L0,-3.968Z" style="fill:rgb(35,31,32);fill-rule:nonzero;" />
        </g>
        <g transform="matrix(1,0,0,1,222.925,94.2739)">
            <path d="M0,2.772C0.146,2.884 0.317,2.941 0.515,2.941C0.755,2.941 0.99,2.886 1.214,2.777C1.595,2.596 1.787,2.296 1.787,1.878L1.787,1.332C1.704,1.387 1.597,1.434 1.466,1.472C1.336,1.509 1.208,1.534 1.084,1.549L0.674,1.596C0.429,1.625 0.243,1.675 0.113,1.745C-0.106,1.863 -0.214,2.051 -0.214,2.309C-0.214,2.504 -0.143,2.66 0,2.772M1.446,0.937C1.602,0.916 1.706,0.852 1.76,0.739C1.793,0.681 1.811,0.595 1.811,0.483C1.811,0.254 1.728,0.088 1.563,-0.014C1.399,-0.118 1.164,-0.17 0.857,-0.17C0.503,-0.17 0.252,-0.075 0.104,0.114C0.021,0.218 -0.033,0.372 -0.059,0.578L-0.697,0.578C-0.686,0.078 -0.525,-0.27 -0.214,-0.466C0.096,-0.661 0.456,-0.76 0.865,-0.76C1.34,-0.76 1.725,-0.666 2.02,-0.48C2.315,-0.294 2.461,-0.009 2.461,0.372L2.461,2.695C2.461,2.766 2.475,2.822 2.504,2.864C2.533,2.908 2.593,2.93 2.686,2.93C2.716,2.93 2.75,2.927 2.788,2.923C2.825,2.92 2.864,2.914 2.907,2.906L2.907,3.403C2.801,3.433 2.723,3.453 2.667,3.46C2.612,3.467 2.537,3.472 2.442,3.472C2.21,3.472 2.041,3.389 1.936,3.225C1.882,3.137 1.843,3.013 1.82,2.854C1.681,3.036 1.482,3.196 1.223,3.329C0.963,3.465 0.676,3.532 0.363,3.532C-0.012,3.532 -0.318,3.417 -0.557,3.188C-0.795,2.96 -0.914,2.674 -0.914,2.331C-0.914,1.954 -0.796,1.664 -0.562,1.456C-0.328,1.249 -0.021,1.12 0.361,1.074L1.446,0.937Z" style="fill:rgb(35,31,32);fill-rule:nonzero;" />
        </g>
        <g transform="matrix(1,0,0,1,227.198,93.1329)">
            <path d="M0,3.643C0.181,3.936 0.47,4.082 0.87,4.082C1.179,4.082 1.436,3.947 1.633,3.675C1.834,3.406 1.934,3.018 1.934,2.512C1.934,2 1.831,1.622 1.624,1.375C1.419,1.13 1.166,1.008 0.862,1.008C0.525,1.008 0.251,1.139 0.042,1.4C-0.168,1.662 -0.273,2.048 -0.273,2.556C-0.273,2.989 -0.181,3.352 0,3.643M1.514,0.612C1.633,0.688 1.77,0.819 1.922,1.008L1.922,-1.03L2.573,-1.03L2.573,4.529L1.957,4.529L1.957,3.969C1.801,4.218 1.613,4.396 1.4,4.508C1.187,4.617 0.941,4.673 0.664,4.673C0.219,4.673 -0.168,4.483 -0.494,4.104C-0.82,3.726 -0.983,3.223 -0.983,2.595C-0.983,2.006 -0.834,1.496 -0.536,1.065C-0.239,0.632 0.187,0.418 0.742,0.418C1.049,0.418 1.307,0.481 1.514,0.612" style="fill:rgb(35,31,32);fill-rule:nonzero;" />
        </g>
        <g transform="matrix(1,0,0,1,231.525,94.2739)">
            <path d="M0,2.772C0.145,2.884 0.316,2.941 0.515,2.941C0.756,2.941 0.988,2.886 1.214,2.777C1.594,2.596 1.785,2.296 1.785,1.878L1.785,1.332C1.703,1.387 1.595,1.434 1.466,1.472C1.335,1.509 1.208,1.534 1.083,1.549L0.673,1.596C0.428,1.625 0.241,1.675 0.112,1.745C-0.107,1.863 -0.216,2.051 -0.216,2.309C-0.216,2.504 -0.144,2.66 0,2.772M1.444,0.937C1.602,0.916 1.706,0.852 1.76,0.739C1.793,0.681 1.809,0.595 1.809,0.483C1.809,0.254 1.726,0.088 1.562,-0.014C1.398,-0.118 1.162,-0.17 0.855,-0.17C0.502,-0.17 0.251,-0.075 0.104,0.114C0.02,0.218 -0.034,0.372 -0.059,0.578L-0.698,0.578C-0.686,0.078 -0.525,-0.27 -0.215,-0.466C0.096,-0.661 0.456,-0.76 0.864,-0.76C1.338,-0.76 1.724,-0.666 2.02,-0.48C2.314,-0.294 2.46,-0.009 2.46,0.372L2.46,2.695C2.46,2.766 2.474,2.822 2.502,2.864C2.533,2.908 2.593,2.93 2.686,2.93C2.716,2.93 2.749,2.927 2.786,2.923C2.824,2.92 2.863,2.914 2.907,2.906L2.907,3.403C2.801,3.433 2.721,3.453 2.667,3.46C2.611,3.467 2.537,3.472 2.441,3.472C2.209,3.472 2.041,3.389 1.935,3.225C1.88,3.137 1.841,3.013 1.819,2.854C1.681,3.036 1.481,3.196 1.223,3.329C0.963,3.465 0.676,3.532 0.363,3.532C-0.012,3.532 -0.319,3.417 -0.558,3.188C-0.796,2.96 -0.916,2.674 -0.916,2.331C-0.916,1.954 -0.797,1.664 -0.563,1.456C-0.329,1.249 -0.021,1.12 0.36,1.074L1.444,0.937Z" style="fill:rgb(35,31,32);fill-rule:nonzero;" />
        </g>
        <g transform="matrix(1,0,0,1,0,-117.4)">
            <rect x="125.062" y="201.994" width="6.587" height="13.412" style="fill:rgb(239,64,86);" />
        </g>
        <g transform="matrix(1,0,0,1,0,-117.4)">
            <rect x="146.258" y="201.994" width="6.586" height="13.412" style="fill:rgb(239,64,86);" />
        </g>
        <g transform="matrix(1,0,0,1,138.04,95.2524)">
            <path d="M0,-7.872L0.942,-9.786L1.875,-7.941C1.991,-7.747 2.086,-7.762 2.272,-7.856L3.074,-8.252L2.553,-5.675C2.443,-5.17 2.732,-5.021 3.043,-5.364L4.188,-6.586L4.492,-5.894C4.592,-5.684 4.748,-5.714 4.951,-5.754L6.134,-6.002L5.737,-4.508L5.728,-4.478C5.683,-4.282 5.589,-4.119 5.807,-4.026L6.227,-3.815L3.791,-1.754C3.542,-1.497 3.628,-1.418 3.722,-1.131L3.946,-0.437L1.673,-0.85C1.393,-0.92 1.199,-0.92 1.189,-0.694L1.285,1.914L0.6,1.914L0.692,-0.687C0.692,-0.944 0.498,-0.937 0.039,-0.843L-2.063,-0.437L-1.791,-1.131C-1.697,-1.396 -1.674,-1.574 -1.884,-1.754L-4.375,-3.785L-3.915,-4.065C-3.783,-4.166 -3.776,-4.275 -3.845,-4.501L-4.312,-6.019L-3.113,-5.762C-2.779,-5.684 -2.687,-5.762 -2.6,-5.949L-2.266,-6.634L-1.084,-5.294C-0.873,-5.045 -0.576,-5.209 -0.669,-5.566L-1.236,-8.362L-0.357,-7.856C-0.217,-7.769 -0.07,-7.747 0.015,-7.91" style="fill:rgb(239,64,86);fill-rule:nonzero;" />
        </g>
    </g>
    <g id="Layer-2" serif:id="Layer 2">
        <g transform="matrix(1,0,0,1,329.516,211.105)">
            <path d="M0,-1.313L-0.249,-5.196C-0.281,-5.29 -0.433,-5.293 -0.436,-5.196C-0.451,-4.358 -1.93,-5.061 -2.455,-5.18C-7.021,-6.221 -10.096,-2.555 -10.096,0.488C-10.096,4.433 -7.487,6.576 -4.133,6.576C-1.461,6.576 -0.109,4.87 0.324,3.021C0.381,2.787 0.119,2.835 0.062,3.021C-0.746,5.597 -2.75,6.249 -3.745,6.234C-5.904,6.203 -7.91,4.462 -7.984,0.488C-8.076,-4.575 -2.357,-7.889 -0.187,-1.375C-0.141,-1.236 -0.033,-1.204 0,-1.313" style="fill:rgb(35,31,32);fill-rule:nonzero;" />
        </g>
        <g transform="matrix(1,0,0,1,332.435,212.433)">
            <path d="M0,4.89C0.979,5.015 1.849,4.13 1.849,3.261L1.849,1.147C-2.329,2.685 -1.026,4.829 0,4.89M-1.056,-2.02C0.124,-2.518 3.324,-2.362 3.324,-0.902L3.324,3.587C3.324,4.813 4.534,5.233 4.878,4.408C4.985,4.3 5.171,4.378 5.079,4.564C4.86,5.433 2.719,5.576 1.972,4.408C-2.142,7.408 -4.769,1.505 0.155,1.413C1.692,1.178 1.863,0.292 1.863,-0.329C1.863,-1.866 1.057,-2.005 0.575,-2.005C0.062,-2.005 -0.356,-1.848 -0.636,-1.057C-1.071,0.527 -3.448,-0.887 -1.056,-2.02" style="fill:rgb(35,31,32);fill-rule:nonzero;" />
        </g>
        <g transform="matrix(1,0,0,1,339.688,217.169)">
            <path d="M0,-6.912L-2.005,-6.648C-2.128,-6.617 -2.128,-6.555 -1.896,-6.493C-1.461,-6.476 -1.183,-6.183 -1.183,-5.545L-1.183,-0.871C-1.183,-0.31 -1.964,0.18 -2.128,0.248C-2.501,0.404 -1.942,0.373 -1.942,0.373L1.335,0.373C1.443,0.373 1.784,0.404 1.349,0.202C0.853,0.016 0.311,-0.389 0.311,-0.871L0.311,-4.381C0.311,-5.855 1.273,-6.662 2.221,-6.662C3.214,-6.662 4.038,-6.445 4.038,-4.392L4.038,-0.871C4.038,-0.357 3.37,0.108 3.013,0.234C2.778,0.293 2.687,0.373 2.889,0.373L6.382,0.373C6.567,0.389 6.647,0.325 6.476,0.279C5.638,-0.047 5.526,-0.666 5.526,-0.871L5.526,-4.969C5.526,-7.316 3.276,-7.004 2.485,-7.004C1.489,-6.989 0.435,-6.367 0.325,-6.089C0.294,-6.849 0.202,-6.926 0,-6.912" style="fill:rgb(35,31,32);fill-rule:nonzero;" />
        </g>
        <g transform="matrix(1,0,0,1,357.236,206.623)">
            <path d="M0,10.7C1.238,10.7 2.066,10.218 2.066,7.331C2.066,4.582 1.238,3.915 0,3.915C-1.238,3.915 -2.24,5.518 -2.24,7.36C-2.24,9.204 -1.238,10.7 0,10.7M2.021,10.345C1.678,10.934 0.839,11.073 -0.201,11.073C-2.174,11.073 -3.789,9.553 -3.789,7.47C-3.789,5.624 -2.746,3.542 -0.094,3.542C2.3,3.542 2.283,5.139 2.283,3.805L2.283,1.46C2.283,0.249 1.802,-0.108 1.43,-0.218C0.886,-0.404 0.187,-0.436 1.305,-0.436L3.388,-0.482C3.262,-0.45 3.527,-0.45 3.527,-0.263L3.527,8.898C3.527,9.536 3.76,10.515 4.783,10.794C4.877,10.809 4.986,10.871 4.877,10.903L2.609,11.151C2.283,11.182 2.146,11.028 2.004,10.39" style="fill:rgb(35,31,32);fill-rule:nonzero;" />
        </g>
        <g transform="matrix(1,0,0,1,348.836,212.426)">
            <path d="M0,4.89C0.977,5.016 1.848,4.129 1.848,3.26L1.848,1.147C-2.332,2.684 -1.025,4.828 0,4.89M-1.057,-2.021C0.123,-2.517 3.323,-2.363 3.323,-0.904L3.323,3.584C3.323,4.813 4.533,5.231 4.876,4.409C4.984,4.299 5.173,4.378 5.078,4.565C4.859,5.432 2.717,5.574 1.973,4.409C-2.146,7.407 -4.77,1.505 0.156,1.411C1.693,1.179 1.862,0.292 1.862,-0.33C1.862,-1.867 1.055,-2.006 0.574,-2.006C0.061,-2.006 -0.358,-1.849 -0.639,-1.058C-1.071,0.527 -3.447,-0.887 -1.057,-2.021" style="fill:rgb(35,31,32);fill-rule:nonzero;" />
        </g>
        <g transform="matrix(1,0,0,1,364.615,212.442)">
            <path d="M0,4.889C0.978,5.014 1.846,4.127 1.846,3.259L1.846,1.147C-2.33,2.684 -1.027,4.827 0,4.889M-1.059,-2.021C0.124,-2.518 3.322,-2.363 3.322,-0.903L3.322,3.584C3.322,4.813 4.533,5.231 4.877,4.41C4.984,4.299 5.172,4.376 5.076,4.564C4.861,5.433 2.717,5.574 1.971,4.41C-2.143,7.407 -4.77,1.501 0.154,1.41C1.693,1.178 1.861,0.293 1.861,-0.329C1.861,-1.865 1.057,-2.007 0.573,-2.007C0.061,-2.007 -0.359,-1.849 -0.638,-1.058C-1.072,0.526 -3.449,-0.887 -1.059,-2.021" style="fill:rgb(35,31,32);fill-rule:nonzero;" />
        </g>
        <g transform="matrix(1,0,0,1,0,115.763)">
            <rect x="361.74" y="90.379" width="1.709" height="3.479" style="fill:rgb(239,64,86);" />
        </g>
        <g transform="matrix(1,0,0,1,0,115.763)">
            <rect x="367.239" y="90.379" width="1.707" height="3.479" style="fill:rgb(239,64,86);" />
        </g>
        <g transform="matrix(1,0,0,1,365.107,208.906)">
            <path d="M0,-2.041L0.244,-2.538L0.486,-2.06C0.516,-2.009 0.539,-2.013 0.59,-2.036L0.797,-2.14L0.662,-1.471C0.633,-1.34 0.707,-1.3 0.789,-1.392L1.086,-1.708L1.164,-1.528C1.189,-1.474 1.23,-1.482 1.283,-1.491L1.589,-1.556L1.488,-1.169L1.484,-1.161C1.475,-1.11 1.449,-1.067 1.506,-1.043L1.615,-0.987L0.983,-0.454C0.919,-0.388 0.941,-0.367 0.965,-0.294L1.023,-0.112L0.434,-0.22C0.361,-0.237 0.311,-0.237 0.309,-0.179L0.334,0.497L0.154,0.497L0.18,-0.178C0.18,-0.245 0.128,-0.241 0.011,-0.217L-0.536,-0.112L-0.465,-0.294C-0.44,-0.36 -0.434,-0.407 -0.487,-0.454L-1.135,-0.981L-1.017,-1.054C-0.982,-1.081 -0.979,-1.108 -0.999,-1.165L-1.119,-1.562L-0.809,-1.494C-0.721,-1.474 -0.697,-1.494 -0.676,-1.541L-0.586,-1.721L-0.28,-1.374C-0.227,-1.308 -0.149,-1.351 -0.175,-1.443L-0.32,-2.167L-0.096,-2.036C-0.057,-2.015 -0.018,-2.009 0.004,-2.052" style="fill:rgb(239,64,86);fill-rule:nonzero;" />
        </g>
    </g>
</svg>
